<svg width="298" height="257" viewBox="0 0 298 257" fill="none" xmlns="http://www.w3.org/2000/svg">
  <g opacity="0.7">
    <g clip-path="url(#clip0_379_137)">
      <path
        d="M136.696 36.4919C89.9122 79.2463 77.8905 143.53 107.475 192.813C139.026 245.408 207.953 263.711 261.136 233.611C290.491 216.998 312.301 186.179 319.481 151.163L289.811 145.098C284.366 171.661 268.061 194.908 246.218 207.271C207.209 229.354 156.618 215.887 133.432 177.248C107.674 134.312 127.66 85.7676 157.136 58.8293L136.696 36.4919Z"
        fill="#1E8E81" />
      <path
        d="M305.603 -62.5764L299.536 -32.9252C326.115 -27.4834 349.366 -11.1943 361.747 10.6458C383.833 49.6362 370.359 100.206 331.705 123.376C293.78 146.106 248.646 138.262 216.751 103.367L194.398 123.788C235.799 169.049 297.238 179.319 347.299 149.32C399.92 117.785 418.231 48.8761 388.117 -4.28081C371.475 -33.6085 340.637 -55.4082 305.603 -62.5764Z"
        fill="#1E8E81" />
      <path
        d="M206.772 98.6652C224.423 98.6652 238.731 112.967 238.731 130.609C238.731 148.251 224.423 162.552 206.772 162.552C189.121 162.552 174.812 148.251 174.812 130.609C174.812 112.967 189.121 98.6652 206.772 98.6652Z"
        fill="#1E8E81" />
      <path
        d="M205.575 -62.0105C223.225 -62.0105 237.534 -47.7089 237.534 -30.067C237.534 -12.4251 223.225 1.87646 205.575 1.87646C187.924 1.87646 173.615 -12.4251 173.615 -30.067C173.615 -47.7089 187.924 -62.0105 205.575 -62.0105Z"
        fill="#1E8E81" />
      <path
        d="M124.647 15.7194C142.298 15.7194 156.606 30.021 156.606 47.6629C156.606 65.3048 142.298 79.6064 124.647 79.6064C106.996 79.6064 92.6875 65.3048 92.6875 47.6629C92.6875 30.021 106.996 15.7194 124.647 15.7194Z"
        fill="#1E8E81" />
      <path
        d="M287.53 19.8635C305.18 19.8635 319.489 34.1651 319.489 51.807C319.489 69.4489 305.18 83.7505 287.53 83.7505C269.879 83.7505 255.57 69.4489 255.57 51.807C255.57 34.1651 269.879 19.8635 287.53 19.8635Z"
        fill="#1E8E81" />
      <path
        d="M125.678 -63.7085C104.98 -63.7085 84.205 -58.1292 65.0804 -46.6674C12.4471 -15.1242 -5.86452 53.7802 24.2503 106.933C40.8712 136.273 71.7101 158.073 106.74 165.225L112.807 135.573C86.2356 130.148 62.981 113.859 50.6034 92.0186C28.5138 53.0282 41.9916 2.45871 80.6414 -20.7075C118.575 -43.4411 163.697 -35.5937 195.6 -0.710973L217.948 -21.1563C192.368 -49.1013 159.13 -63.7085 125.678 -63.7085Z"
        fill="#1E8E81" />
      <path
        d="M207.265 -148.105C194.16 -148.105 180.953 -145.534 167.94 -140.379C133.19 -126.609 102.719 -94.5038 88.4199 -56.5928L116.755 -45.9153C128.138 -76.1001 152.031 -101.514 179.104 -112.22C199.386 -120.286 220.331 -119.542 239.613 -110.102C263.523 -98.3769 281.616 -74.2363 286.83 -47.0312C289.464 -33.3094 287.38 -16.1429 280.969 1.29844C275.844 15.2467 267.827 26.9349 257.783 35.1098C225.1 61.7287 158.738 56.4365 130.993 25.0024C130.755 24.7355 130.516 24.4445 130.273 24.1493L106.861 43.3494C107.322 43.9127 107.791 44.4666 108.269 45.011C147.392 89.3139 230.908 96.0171 276.908 58.5671C291.158 46.9678 302.391 30.7677 309.397 11.7293C317.677 -10.7981 320.242 -33.6894 316.569 -52.7399C309.494 -89.632 285.706 -121.236 252.933 -137.274C238.197 -144.491 222.802 -148.105 207.265 -148.105Z"
        fill="#1E8E81" />
    </g>
  </g>
  <defs>
    <clipPath id="clip0_379_137">
      <path d="M0 257H298V20C298 8.95432 289.046 -1.19206e-07 278 -1.19206e-07H0V257Z" fill="white" />
    </clipPath>
  </defs>
</svg>