<svg width="28" height="28" viewBox="0 0 28 28" fill="none" xmlns="http://www.w3.org/2000/svg">
<g id="ri:instagram-fill">
<path id="Vector" d="M15.1987 2.33444C16.0501 2.33118 16.9014 2.33973 17.7525 2.36011L17.9789 2.36828C18.2402 2.37761 18.498 2.38928 18.8095 2.40328C20.0509 2.46161 20.8979 2.65761 21.641 2.94578C22.411 3.24211 23.0597 3.64344 23.7084 4.29211C24.3015 4.87498 24.7605 5.58005 25.0535 6.35828C25.3417 7.10144 25.5377 7.94961 25.596 9.19094C25.61 9.50128 25.6217 9.76028 25.631 10.0216L25.638 10.2479C25.6588 11.0987 25.6677 11.9496 25.6649 12.8006L25.666 13.6709V15.1993C25.6689 16.0506 25.66 16.902 25.6392 17.7531L25.6322 17.9794C25.6229 18.2408 25.6112 18.4986 25.5972 18.8101C25.5389 20.0514 25.3405 20.8984 25.0535 21.6416C24.7615 22.4207 24.3023 23.1263 23.7084 23.7089C23.125 24.302 22.4196 24.761 21.641 25.0541C20.8979 25.3423 20.0509 25.5383 18.8095 25.5966C18.498 25.6106 18.2402 25.6223 17.9789 25.6316L17.7525 25.6386C16.9014 25.6593 16.0501 25.6683 15.1987 25.6654L14.3284 25.6666H12.8012C11.9498 25.6695 11.0985 25.6605 10.2474 25.6398L10.021 25.6328C9.74408 25.6227 9.46719 25.6111 9.19037 25.5978C7.94904 25.5394 7.10204 25.3411 6.3577 25.0541C5.57917 24.7617 4.87398 24.3026 4.29154 23.7089C3.69776 23.1259 3.2383 22.4204 2.9452 21.6416C2.65704 20.8984 2.46104 20.0514 2.4027 18.8101C2.38971 18.5333 2.37804 18.2564 2.3677 17.9794L2.36187 17.7531C2.34036 16.902 2.33064 16.0506 2.3327 15.1993V12.8006C2.32945 11.9496 2.338 11.0987 2.35837 10.2479L2.36654 10.0216C2.37587 9.76028 2.38754 9.50128 2.40154 9.19094C2.45987 7.94844 2.65587 7.10261 2.94404 6.35828C3.23731 5.57967 3.69766 4.8748 4.2927 4.29328C4.87475 3.69915 5.57949 3.23928 6.3577 2.94578C7.10204 2.65761 7.94787 2.46161 9.19037 2.40328L10.021 2.36828L10.2474 2.36244C11.0981 2.34095 11.9491 2.33122 12.8 2.33328L15.1987 2.33444ZM13.9994 8.16778C13.2265 8.15684 12.4591 8.29964 11.7418 8.58786C11.0246 8.87607 10.3718 9.30397 9.82136 9.84667C9.27092 10.3894 8.83384 11.0361 8.53551 11.7492C8.23717 12.4623 8.08354 13.2275 8.08354 14.0005C8.08354 14.7735 8.23717 15.5388 8.53551 16.2519C8.83384 16.965 9.27092 17.6117 9.82136 18.1544C10.3718 18.6971 11.0246 19.125 11.7418 19.4132C12.4591 19.7014 13.2265 19.8442 13.9994 19.8333C15.5465 19.8333 17.0302 19.2187 18.1242 18.1247C19.2181 17.0308 19.8327 15.547 19.8327 13.9999C19.8327 12.4528 19.2181 10.9691 18.1242 9.87515C17.0302 8.78119 15.5465 8.16778 13.9994 8.16778ZM13.9994 10.5011C14.4643 10.4925 14.9263 10.5767 15.3583 10.7487C15.7903 10.9207 16.1838 11.177 16.5156 11.5027C16.8475 11.8285 17.1111 12.2171 17.2911 12.6458C17.471 13.0746 17.5638 13.5349 17.5639 13.9999C17.5639 14.4649 17.4713 14.9253 17.2915 15.3541C17.1117 15.7829 16.8482 16.1716 16.5164 16.4975C16.1847 16.8233 15.7914 17.0798 15.3594 17.2519C14.9274 17.424 14.4655 17.5084 14.0005 17.4999C13.0723 17.4999 12.182 17.1312 11.5257 16.4748C10.8693 15.8184 10.5005 14.9282 10.5005 13.9999C10.5005 13.0717 10.8693 12.1814 11.5257 11.5251C12.182 10.8687 13.0723 10.4999 14.0005 10.4999L13.9994 10.5011ZM20.1244 6.41778C19.748 6.43284 19.392 6.59295 19.1311 6.86458C18.8701 7.1362 18.7244 7.49827 18.7244 7.87494C18.7244 8.25162 18.8701 8.61369 19.1311 8.88531C19.392 9.15693 19.748 9.31705 20.1244 9.33211C20.5111 9.33211 20.8821 9.17846 21.1556 8.90497C21.4291 8.63148 21.5827 8.26055 21.5827 7.87378C21.5827 7.487 21.4291 7.11607 21.1556 6.84258C20.8821 6.56909 20.5111 6.41544 20.1244 6.41544V6.41778Z" fill="white"/>
</g>
</svg>
