<svg width="20" height="20" viewBox="0 0 20 20" fill="none" xmlns="http://www.w3.org/2000/svg">
<g id="Icons">
<path id="Vector" d="M18.0911 7.25823C19.1327 6.21657 18.6577 4.9999 18.0911 4.40823L15.5911 1.90823C14.5411 0.866567 13.3327 1.34157 12.7411 1.90823L11.3244 3.33323H9.16608C7.58275 3.33323 6.66608 4.16657 6.19941 5.1249L2.49941 8.8249V12.1582L1.90775 12.7416C0.866079 13.7916 1.34108 14.9999 1.90775 15.5916L4.40775 18.0916C4.85775 18.5416 5.34108 18.7082 5.79941 18.7082C6.39108 18.7082 6.93275 18.4166 7.25775 18.0916L9.50775 15.8332H12.4994C13.9161 15.8332 14.6327 14.9499 14.8911 14.0832C15.8327 13.8332 16.3494 13.1166 16.5577 12.4166C17.8494 12.0832 18.3327 10.8582 18.3327 9.9999V7.4999H17.8411L18.0911 7.25823ZM16.6661 9.9999C16.6661 10.3749 16.5077 10.8332 15.8327 10.8332H14.9994V11.6666C14.9994 12.0416 14.8411 12.4999 14.1661 12.4999H13.3327V13.3332C13.3327 13.7082 13.1744 14.1666 12.4994 14.1666H8.82441L6.09108 16.8999C5.83275 17.1416 5.68275 16.9999 5.59108 16.9082L3.09941 14.4249C2.85775 14.1666 2.99941 14.0166 3.09108 13.9249L4.16608 12.8416V9.50823L5.83275 7.84157V9.16657C5.83275 10.1749 6.49941 11.6666 8.33275 11.6666C10.1661 11.6666 10.8327 10.1749 10.8327 9.16657H16.6661V9.9999ZM16.9077 6.0749L15.4911 7.4999H9.16608V9.16657C9.16608 9.54157 9.00775 9.9999 8.33275 9.9999C7.65775 9.9999 7.49941 9.54157 7.49941 9.16657V6.66657C7.49941 6.28323 7.64108 4.9999 9.16608 4.9999H12.0077L13.9077 3.0999C14.1661 2.85823 14.3161 2.9999 14.4077 3.09157L16.8994 5.5749C17.1411 5.83323 16.9994 5.98323 16.9077 6.0749Z" fill="#2AC870"/>
</g>
</svg>
