<svg width="20" height="20" viewBox="0 0 20 20" fill="none" xmlns="http://www.w3.org/2000/svg">
<g id="Icons">
<path id="Vector" d="M7.49967 1.66675H14.9997C15.9163 1.66675 16.6663 2.41675 16.6663 3.33341V16.6667C16.6663 17.5834 15.9163 18.3334 14.9997 18.3334H7.49967C6.58301 18.3334 5.83301 17.5834 5.83301 16.6667V15.8334C5.83301 15.6124 5.92081 15.4004 6.07709 15.2442C6.23337 15.0879 6.44533 15.0001 6.66634 15.0001C6.88735 15.0001 7.09932 15.0879 7.2556 15.2442C7.41188 15.4004 7.49967 15.6124 7.49967 15.8334V16.6667H14.9997V3.33341H7.49967V4.16675C7.49967 4.38776 7.41188 4.59972 7.2556 4.756C7.09932 4.91228 6.88735 5.00008 6.66634 5.00008C6.44533 5.00008 6.23337 4.91228 6.07709 4.756C5.92081 4.59972 5.83301 4.38776 5.83301 4.16675V3.33341C5.83301 2.41675 6.58301 1.66675 7.49967 1.66675Z" fill="#2AC870"/>
<path id="Vector_2" d="M8.99583 13.5793C9.32083 13.9043 9.84583 13.9043 10.1708 13.5793L13.1608 10.5893C13.3171 10.433 13.4048 10.2211 13.4048 10.0001C13.4048 9.77913 13.3171 9.56721 13.1608 9.41094L10.1708 6.42094C10.0124 6.27777 9.80506 6.20093 9.59161 6.20632C9.37816 6.21171 9.17493 6.29891 9.02395 6.44989C8.87297 6.60087 8.78577 6.80409 8.78038 7.01755C8.77499 7.231 8.85183 7.43836 8.995 7.59677L10.5583 9.16677H3.33333C3.11232 9.16677 2.90036 9.25457 2.74408 9.41085C2.5878 9.56713 2.5 9.77909 2.5 10.0001C2.5 10.2211 2.5878 10.4331 2.74408 10.5894C2.90036 10.7456 3.11232 10.8334 3.33333 10.8334H10.5583L8.995 12.4034C8.83944 12.5596 8.75218 12.7711 8.75233 12.9915C8.75249 13.212 8.84006 13.4233 8.99583 13.5793Z" fill="#2AC870"/>
</g>
</svg>
