<svg width="20" height="20" viewBox="0 0 20 20" fill="none" xmlns="http://www.w3.org/2000/svg">
<g id="Icons">
<path id="Vector" d="M5.83367 5.0001C5.66885 5.0001 5.50774 5.04897 5.3707 5.14054C5.23366 5.23211 5.12685 5.36225 5.06377 5.51453C5.0007 5.6668 4.9842 5.83435 5.01635 5.996C5.04851 6.15765 5.12787 6.30614 5.24442 6.42268C5.36096 6.53923 5.50945 6.6186 5.6711 6.65075C5.83275 6.6829 6.0003 6.6664 6.15258 6.60333C6.30485 6.54026 6.435 6.43344 6.52656 6.2964C6.61813 6.15936 6.66701 5.99825 6.66701 5.83343C6.66701 5.61241 6.57921 5.40045 6.42293 5.24417C6.26665 5.08789 6.05469 5.0001 5.83367 5.0001ZM18.092 9.81676L10.192 1.93343C10.1143 1.84965 10.0202 1.78274 9.91556 1.73687C9.8109 1.69099 9.69794 1.66713 9.58367 1.66676H4.58367C4.474 1.66613 4.36528 1.68715 4.26375 1.72862C4.16222 1.77009 4.06987 1.83119 3.99201 1.90843L1.90867 3.98343C1.83144 4.0613 1.77033 4.15364 1.72886 4.25517C1.68739 4.3567 1.66637 4.46542 1.66701 4.57509V9.5751C1.67008 9.79573 1.75639 10.0071 1.90867 10.1668L9.81701 18.0834C9.9767 18.2357 10.188 18.322 10.4087 18.3251C10.5183 18.3257 10.6271 18.3047 10.7286 18.2632C10.8301 18.2218 10.9225 18.1607 11.0003 18.0834L18.092 10.9918C18.1692 10.9139 18.2303 10.8215 18.2718 10.72C18.3133 10.6185 18.3343 10.5098 18.3337 10.4001C18.3285 10.1824 18.2424 9.97435 18.092 9.81676ZM10.4087 16.3251L3.33367 9.24176V4.91676L4.91701 3.33343H9.23367L16.317 10.4084L10.4087 16.3251Z" fill="#2AC870"/>
</g>
</svg>
