<svg width="20" height="20" viewBox="0 0 20 20" fill="none" xmlns="http://www.w3.org/2000/svg">
<g id="Icons">
<path id="Vector" d="M18.3337 2.5H1.66699V7.5H2.50033V16.6667C2.50033 17.1087 2.67592 17.5326 2.98848 17.8452C3.30104 18.1577 3.72496 18.3333 4.16699 18.3333H15.8337C16.2757 18.3333 16.6996 18.1577 17.0122 17.8452C17.3247 17.5326 17.5003 17.1087 17.5003 16.6667V7.5H18.3337V2.5ZM3.33366 4.16667H16.667V5.83333H3.33366V4.16667ZM15.8337 16.6667H4.16699V7.5H15.8337V16.6667ZM7.50033 9.16667H12.5003C12.5003 9.60869 12.3247 10.0326 12.0122 10.3452C11.6996 10.6577 11.2757 10.8333 10.8337 10.8333H9.16699C8.72497 10.8333 8.30104 10.6577 7.98848 10.3452C7.67592 10.0326 7.50033 9.60869 7.50033 9.16667Z" fill="#2AC870"/>
</g>
</svg>
