<svg width="20" height="20" viewBox="0 0 20 20" fill="none" xmlns="http://www.w3.org/2000/svg">
<g id="Icons">
<path id="Vector" d="M16.9584 7.43575L16.6534 7.26575C16.385 7.12752 16.1592 6.91899 16.0001 6.66242C15.9859 6.63992 15.9726 6.61575 15.9459 6.56908C15.7663 6.28065 15.6791 5.94426 15.6959 5.60492L15.7009 5.25075C15.7109 4.68408 15.7159 4.39908 15.6359 4.14408C15.5652 3.91718 15.4467 3.70805 15.2884 3.53075C15.1101 3.33075 14.8626 3.18742 14.3667 2.90242L13.9551 2.66492C13.4617 2.38075 13.2142 2.23825 12.9517 2.18408C12.7198 2.13607 12.4803 2.13806 12.2492 2.18992C11.9884 2.24825 11.7442 2.39492 11.2567 2.68658L11.2542 2.68825L10.9592 2.86408C10.9126 2.89242 10.8884 2.90575 10.8651 2.91908C10.6334 3.04825 10.3751 3.11908 10.1092 3.12742C10.0826 3.12908 10.0551 3.12908 10.0009 3.12908L9.89257 3.12825C9.62664 3.11988 9.36659 3.04786 9.13423 2.91825C9.1109 2.90575 9.0884 2.89158 9.04173 2.86325L8.74423 2.68492C8.2534 2.38992 8.00757 2.24325 7.74507 2.18408C7.51312 2.13211 7.27273 2.13041 7.04007 2.17908C6.77673 2.23408 6.53007 2.37742 6.0359 2.66408L6.0334 2.66492L5.62673 2.90075L5.62257 2.90408C5.13257 3.18742 4.88673 3.33075 4.71007 3.52992C4.55263 3.70691 4.43473 3.91543 4.36423 4.14158C4.28507 4.39742 4.28923 4.68242 4.29923 5.25242L4.30507 5.60575C4.30507 5.65992 4.30757 5.68658 4.30673 5.71242C4.30233 6.01517 4.21562 6.31102 4.0559 6.56825C4.0284 6.61492 4.0159 6.63825 4.00173 6.65992C3.86123 6.88673 3.66832 7.07649 3.43923 7.21325L3.3459 7.26575L3.04507 7.43242C2.5434 7.70992 2.29257 7.84908 2.1109 8.04742C1.94938 8.22228 1.8272 8.42971 1.75257 8.65575C1.66923 8.91158 1.66923 9.19742 1.67007 9.77075L1.67173 10.2399C1.67257 10.8091 1.67423 11.0933 1.7584 11.3474C1.83272 11.5721 1.95402 11.7783 2.11423 11.9524C2.2959 12.1491 2.54423 12.2874 3.04173 12.5641L3.34007 12.7299C3.3909 12.7583 3.41673 12.7716 3.4409 12.7866C3.70205 12.9431 3.91532 13.1682 4.05757 13.4374L4.1134 13.5374C4.25416 13.8032 4.32039 14.1021 4.30507 14.4024L4.29923 14.7416C4.28923 15.3133 4.28507 15.5999 4.36507 15.8558C4.4359 16.0824 4.55423 16.2916 4.71257 16.4691C4.8909 16.6691 5.13923 16.8116 5.63423 17.0974L6.0459 17.3349C6.54007 17.6191 6.78673 17.7616 7.04923 17.8158C7.28115 17.8637 7.52064 17.8618 7.75173 17.8099C8.0134 17.7516 8.25757 17.6049 8.74673 17.3116L9.04173 17.1349C9.29583 16.9713 9.58967 16.88 9.89173 16.8708H10.1084C10.3734 16.8791 10.6334 16.9516 10.8667 17.0808L10.9434 17.1266L11.2567 17.3149C11.7484 17.6099 11.9934 17.7566 12.2559 17.8149C12.4877 17.8674 12.7281 17.8697 12.9609 17.8216C13.2234 17.7666 13.4717 17.6224 13.9659 17.3358L14.3784 17.0966C14.8684 16.8116 15.1142 16.6691 15.2909 16.4699C15.4492 16.2924 15.5659 16.0841 15.6367 15.8583C15.7159 15.6041 15.7117 15.3216 15.7017 14.7599L15.6951 14.3933C15.6785 14.0545 15.7657 13.7187 15.9451 13.4308L15.9992 13.3391C16.1397 13.1123 16.3326 12.9225 16.5617 12.7858L16.6534 12.7349L16.6551 12.7341L16.9559 12.5674C17.4576 12.2891 17.7084 12.1508 17.8909 11.9524C18.0526 11.7774 18.1742 11.5691 18.2484 11.3441C18.3317 11.0899 18.3317 10.8049 18.3301 10.2383L18.3284 9.75992C18.3276 9.19075 18.3267 8.90575 18.2426 8.65158C18.1678 8.42719 18.0463 8.22125 17.8859 8.04742C17.7051 7.85075 17.4567 7.71242 16.9601 7.43658L16.9584 7.43575Z" stroke="#2AC870" stroke-width="2" stroke-linecap="round" stroke-linejoin="round"/>
<path id="Vector_2" d="M6.66699 10.0001C6.66699 10.8841 7.01818 11.732 7.6433 12.3571C8.26842 12.9822 9.11627 13.3334 10.0003 13.3334C10.8844 13.3334 11.7322 12.9822 12.3573 12.3571C12.9825 11.732 13.3337 10.8841 13.3337 10.0001C13.3337 9.11603 12.9825 8.26818 12.3573 7.64306C11.7322 7.01794 10.8844 6.66675 10.0003 6.66675C9.11627 6.66675 8.26842 7.01794 7.6433 7.64306C7.01818 8.26818 6.66699 9.11603 6.66699 10.0001Z" stroke="#2AC870" stroke-width="2" stroke-linecap="round" stroke-linejoin="round"/>
</g>
</svg>
