<svg width="33" height="32" viewBox="0 0 33 32" fill="none" xmlns="http://www.w3.org/2000/svg">
    <g clip-path="url(#clip0_645_1843)">
        <path
            d="M10.9435 17.0592C7.34684 13.8181 6.42245 8.94435 8.69588 5.20838C11.1219 1.22132 16.4221 -0.165107 20.5123 2.1165C22.771 3.37557 24.4449 5.71176 24.9964 8.3694L22.7156 8.83033C22.2971 6.81557 21.044 5.05312 19.3639 4.1167C16.3642 2.44279 12.471 3.46291 10.6924 6.39224C8.71188 9.64666 10.248 13.3268 12.5141 15.3683L10.9435 17.0592Z"
            fill="#22D369" />
        <path
            d="M23.9293 24.5686L23.4628 22.3185C25.5072 21.9061 27.2945 20.6713 28.2459 19.0156C29.9446 16.0595 28.9082 12.2229 25.9368 10.4701C23.0172 8.74892 19.551 9.33964 17.0979 11.9876L15.3857 10.4398C18.5688 7.00951 23.2929 6.23078 27.1406 8.50511C31.1865 10.8959 32.5934 16.119 30.2781 20.1497C28.9943 22.3719 26.6236 24.0251 23.9293 24.5686Z"
            fill="#22D369" />
        <path
            d="M16.3318 12.3456C17.6887 12.3456 18.7887 11.2617 18.7887 9.92452C18.7887 8.58738 17.6887 7.50342 16.3318 7.50342C14.975 7.50342 13.875 8.58738 13.875 9.92452C13.875 11.2617 14.975 12.3456 16.3318 12.3456Z"
            fill="#22D369" />
        <path
            d="M16.2391 24.5253C17.5959 24.5253 18.6959 23.4413 18.6959 22.1042C18.6959 20.7671 17.5959 19.6831 16.2391 19.6831C14.8822 19.6831 13.7822 20.7671 13.7822 22.1042C13.7822 23.4413 14.8822 24.5253 16.2391 24.5253Z"
            fill="#22D369" />
        <path
            d="M10.0164 18.6327C11.3733 18.6327 12.4732 17.5488 12.4732 16.2116C12.4732 14.8745 11.3733 13.7905 10.0164 13.7905C8.65953 13.7905 7.55957 14.8745 7.55957 16.2116C7.55957 17.5488 8.65953 18.6327 10.0164 18.6327Z"
            fill="#22D369" />
        <path
            d="M22.5408 18.3188C23.8977 18.3188 24.9976 17.2348 24.9976 15.8977C24.9976 14.5605 23.8977 13.4766 22.5408 13.4766C21.1839 13.4766 20.084 14.5605 20.084 15.8977C20.084 17.2348 21.1839 18.3188 22.5408 18.3188Z"
            fill="#22D369" />
        <path
            d="M10.0941 24.6548C8.45071 24.6504 6.83977 24.2038 5.43521 23.363C1.38932 20.971 -0.0188056 15.7479 2.29647 11.7184C3.57659 9.49504 5.94848 7.84297 8.64164 7.29834L9.10938 9.54599C7.06612 9.95961 5.27766 11.1944 4.32619 12.8489C2.62758 15.8049 3.66398 19.6416 6.63531 21.3943C9.55249 23.118 13.0211 22.5236 15.4742 19.8793L17.1975 21.4271C15.2244 23.5474 12.6691 24.6536 10.0941 24.6548Z"
            fill="#22D369" />
        <path
            d="M16.3714 31.0526C15.3352 31.0479 14.3093 30.8491 13.3484 30.4667C10.6762 29.4236 8.33257 26.9891 7.2334 24.1156L9.41205 23.3065C10.2872 25.5942 12.12 27.5204 14.2125 28.3343C14.9546 28.6365 15.7538 28.7782 16.5562 28.75C17.3587 28.7217 18.1456 28.5242 18.864 28.1706C20.7029 27.2839 22.0938 25.4523 22.495 23.3914C22.6969 22.3507 22.5369 21.0492 22.0445 19.727C21.6928 18.7311 21.077 17.8462 20.261 17.164C17.7488 15.1468 12.6468 15.5483 10.5137 17.9294C10.4956 17.9496 10.4772 17.9715 10.4583 17.9949L8.65752 16.5393C8.69322 16.4969 8.72891 16.4544 8.76584 16.418C11.7741 13.0593 18.1956 12.5511 21.7319 15.3907C22.8719 16.3324 23.7344 17.5586 24.2293 18.941C24.8669 20.6489 25.0627 22.3847 24.7808 23.8281C24.2367 26.6252 22.4076 29.0209 19.888 30.2363C18.7952 30.7714 17.5918 31.0508 16.3714 31.0526Z"
            fill="#22D369" />
    </g>
    <defs>
        <clipPath id="clip0_645_1843">
            <rect width="33" height="32" fill="white" />
        </clipPath>
    </defs>
</svg>