<svg width="220" height="41" viewBox="0 0 220 41" fill="none" xmlns="http://www.w3.org/2000/svg">
<path d="M58.5775 30.2713C56.6125 30.2713 54.9345 29.9175 53.5435 29.2099C52.2299 28.5678 51.0936 27.6218 50.2317 26.4528C49.4267 25.3495 48.8624 24.0938 48.5742 22.7649H52.6146C52.9417 23.8789 53.6344 24.8546 54.5844 25.539C55.5895 26.3005 56.92 26.6813 58.5759 26.6813C59.724 26.6813 60.6787 26.5399 61.4399 26.257C62.2011 25.9742 62.7588 25.5877 63.1131 25.0976C63.4667 24.6075 63.6523 24.0189 63.643 23.4176C63.6507 23.104 63.588 22.7926 63.4593 22.5057C63.3306 22.2187 63.1392 21.9634 62.8987 21.7578C62.3501 21.2903 61.7172 20.9287 61.033 20.6917C60.2823 20.4202 59.2667 20.1094 57.9861 19.7592C56.5015 19.385 55.0416 18.9215 53.6145 18.3714C52.5219 17.9333 51.5471 17.2519 50.7663 16.3805C49.9715 15.4988 49.5741 14.3296 49.5741 12.8729C49.5741 11.6751 49.9371 10.5045 50.6165 9.51131C51.3115 8.46694 52.3103 7.63807 53.6129 7.02471C54.9156 6.41135 56.428 6.10674 58.1501 6.11088C59.9827 6.11088 61.5555 6.42637 62.8687 7.05734C64.1819 7.68832 65.2085 8.50424 65.9487 9.50509C66.6789 10.4844 67.1823 11.6096 67.4233 12.8014H63.3797C63.1368 11.9311 62.579 11.1965 61.7064 10.5976C60.8338 9.99879 59.6473 9.70299 58.147 9.71024C57.3013 9.68942 56.4599 9.83361 55.671 10.1345C55.0614 10.3614 54.5279 10.751 54.1302 11.2597C53.7938 11.7097 53.614 12.2549 53.6177 12.8138C53.6111 13.1217 53.673 13.4273 53.7988 13.7092C53.9247 13.991 54.1115 14.2424 54.3463 14.4457C54.8892 14.9137 55.519 15.2736 56.2009 15.5056C56.9516 15.7781 57.9672 16.0775 59.2478 16.4039C60.7285 16.8033 62.1876 17.2769 63.6194 17.8228C64.728 18.257 65.7158 18.9453 66.5007 19.8307C67.2955 20.7228 67.6929 21.8977 67.6929 23.3555C67.7012 24.59 67.3253 25.7974 66.6158 26.815C65.8977 27.8593 64.8547 28.697 63.4869 29.328C62.1191 29.959 60.4826 30.2734 58.5775 30.2713Z" fill="#EDF2F5"/>
<path d="M77.7194 30.0102C75.666 30.0102 74.0485 29.3953 72.8667 28.1654C71.685 26.9356 71.0947 25.2141 71.0957 23.0011V13.137H74.7056V22.6017C74.7056 23.9942 75.0641 25.0494 75.7812 25.7674C76.4982 26.4854 77.4644 26.8444 78.6798 26.8444C79.499 26.855 80.3058 26.6461 81.0138 26.2399C81.7171 25.8296 82.2863 25.2293 82.654 24.5101C83.0616 23.717 83.2662 22.8378 83.2501 21.9489V13.137H86.8963V29.6185H83.2533V27.2361H83.1539C82.6227 28.0648 81.8862 28.7467 81.0138 29.2176C80.0065 29.7653 78.8694 30.0389 77.7194 30.0102Z" fill="#EDF2F5"/>
<path d="M91.0332 35.8195V13.137H94.6431V15.5195H94.7425C95.0257 15.1175 95.3589 14.752 95.7344 14.4316C97.0044 13.3049 98.6643 12.7009 100.373 12.7438C101.765 12.7303 103.132 13.1076 104.315 13.8317C105.528 14.5829 106.512 15.6429 107.163 16.8996C107.886 18.287 108.249 19.8288 108.222 21.3879C108.247 22.9358 107.883 24.4659 107.163 25.842C106.512 27.0987 105.528 28.1587 104.315 28.9099C103.132 29.6339 101.765 30.0113 100.373 29.9978C98.6649 30.0465 97.0031 29.4492 95.7281 28.3286C95.3526 28.0082 95.0194 27.6428 94.7361 27.2407H94.6368V35.8242L91.0332 35.8195ZM99.6108 26.8444C100.491 26.8567 101.358 26.6246 102.11 26.1746C102.865 25.7127 103.473 25.0515 103.866 24.2661C104.312 23.3737 104.534 22.3887 104.512 21.3941C104.535 20.3904 104.313 19.396 103.866 18.4941C103.473 17.7083 102.865 17.0466 102.11 16.5841C101.357 16.1345 100.491 15.903 99.6108 15.9158C98.7199 15.9058 97.8433 16.137 97.0765 16.5841C96.3069 17.0387 95.6862 17.7017 95.2881 18.4941C94.8403 19.3975 94.6191 20.3936 94.6431 21.3988C94.6214 22.3932 94.8427 23.3782 95.2881 24.2708C95.6862 25.0628 96.307 25.7253 97.0765 26.1793C97.8437 26.6252 98.7202 26.8553 99.6108 26.8444Z" fill="#EDF2F5"/>
<path d="M111.465 35.8195V13.137H115.075V15.5195H115.174C115.458 15.1178 115.792 14.7524 116.168 14.4316C117.437 13.3055 119.095 12.7014 120.803 12.7438C122.195 12.7299 123.563 13.1073 124.745 13.8317C125.958 14.5824 126.942 15.6425 127.593 16.8995C128.3 18.2153 128.653 19.7114 128.653 21.3878C128.679 22.936 128.314 24.4662 127.593 25.842C126.943 27.1013 125.959 28.1635 124.745 28.916C123.563 29.6403 122.195 30.0177 120.803 30.0039C119.096 30.0472 117.437 29.4456 116.166 28.3223C115.791 28.0015 115.457 27.6361 115.173 27.2345H115.073V35.8179L111.465 35.8195ZM120.042 26.8444C120.921 26.8555 121.786 26.6234 122.537 26.1745C123.292 25.7127 123.9 25.0515 124.293 24.2661C124.738 23.3735 124.959 22.3885 124.938 21.3941C124.963 20.391 124.744 19.3966 124.299 18.4941C123.906 17.7057 123.295 17.0422 122.537 16.5794C121.784 16.1298 120.917 15.8983 120.036 15.9111C119.146 15.9012 118.27 16.1323 117.503 16.5794C116.735 17.0361 116.117 17.7007 115.721 18.4941C115.273 19.3973 115.051 20.3935 115.075 21.3987C115.054 22.3933 115.275 23.3783 115.721 24.2707C116.119 25.0627 116.74 25.7252 117.51 26.1792C118.276 26.6252 119.152 26.8552 120.042 26.8444Z" fill="#EDF2F5"/>
<path d="M139.814 30.0101C138.222 30.0315 136.652 29.6431 135.259 28.8834C133.927 28.157 132.822 27.0847 132.064 25.7829C131.286 24.4484 130.886 22.9328 130.905 21.394C130.888 19.85 131.288 18.3294 132.064 16.9881C132.818 15.679 133.923 14.6002 135.259 13.8705C136.667 13.1307 138.237 12.7437 139.833 12.7437C141.428 12.7437 142.999 13.1307 144.406 13.8705C145.743 14.5997 146.849 15.6786 147.603 16.9881C148.379 18.3294 148.779 19.85 148.762 21.394C148.781 22.9328 148.381 24.4484 147.603 25.7829C146.845 27.0851 145.739 28.1575 144.406 28.8834C143.001 29.6467 141.418 30.0351 139.814 30.0101ZM139.814 26.8443C140.754 26.8577 141.68 26.621 142.495 26.159C143.289 25.7024 143.937 25.0352 144.365 24.2334C144.83 23.3582 145.064 22.3817 145.045 21.394C145.066 20.3957 144.832 19.4081 144.365 18.522C143.937 17.7202 143.289 17.053 142.495 16.5964C141.68 16.1345 140.754 15.8977 139.814 15.9111C138.884 15.9002 137.969 16.137 137.164 16.5964C136.37 17.0529 135.721 17.7201 135.292 18.522C134.826 19.4082 134.592 20.3958 134.614 21.394C134.595 22.3816 134.828 23.358 135.292 24.2334C135.721 25.0354 136.37 25.7025 137.164 26.159C137.969 26.6184 138.884 26.8552 139.814 26.8443Z" fill="#EDF2F5"/>
<path d="M151.936 29.6185V13.1448H155.545V15.6905H155.645C156.039 14.8815 156.652 14.1953 157.416 13.7074C158.222 13.1738 159.199 12.9075 160.348 12.9086H162.335V16.4007H160.116C159.286 16.3832 158.465 16.5741 157.731 16.9555C157.058 17.3146 156.501 17.8532 156.124 18.5096C155.728 19.2129 155.528 20.0071 155.545 20.8113V29.6232L151.936 29.6185Z" fill="#EDF2F5"/>
<path d="M165.647 29.6184V16.3027H163.494V13.1369H165.647V9.54688H169.29V13.1369H174.324V16.3027H169.29V26.4527H174.494V29.6184H165.647Z" fill="#EDF2F5"/>
<path d="M177.504 29.6186V6.77295H181.114V26.4529H184.922V29.6186H177.504Z" fill="#EDF2F5"/>
<path d="M192.042 35.8192L193.963 29.6183H190.221L185.75 13.1445H189.563L193.033 26.4603H194.925L198.933 13.1445H202.708L195.853 35.8348L192.042 35.8192Z" fill="#EDF2F5"/>
<path d="M203.533 29.6187V26.453L212.746 16.4988V16.303H203.871V13.1372H217.517V16.303L208.331 26.2649V26.4607H217.834V29.6265L203.533 29.6187Z" fill="#EDF2F5"/>
<path d="M14.0211 21.857C9.41295 17.7044 8.22858 11.4599 11.1414 6.67317C14.2498 1.56476 21.0406 -0.211604 26.2812 2.71171C29.1751 4.32489 31.3199 7.31814 32.0264 10.7232L29.1041 11.3138C28.5679 8.73239 26.9625 6.47425 24.8098 5.27446C20.9665 3.12977 15.9783 4.43679 13.6994 8.19C11.1619 12.3597 13.1301 17.0749 16.0335 19.6905L14.0211 21.857Z" fill="#13EA4B"/>
<path d="M30.6593 31.4787L30.0616 28.5957C32.6811 28.0673 34.971 26.4852 36.19 24.3639C38.3664 20.5765 37.0385 15.6608 33.2315 13.415C29.4907 11.2097 25.0497 11.9666 21.9066 15.3593L19.7129 13.3762C23.7912 8.98112 29.8439 7.98337 34.7738 10.8974C39.9576 13.9605 41.7602 20.6526 38.7938 25.817C37.1489 28.6641 34.1115 30.7824 30.6593 31.4787Z" fill="#13EA4B"/>
<path d="M20.9252 15.8178C22.6636 15.8178 24.073 14.429 24.073 12.7158C24.073 11.0026 22.6636 9.61377 20.9252 9.61377C19.1867 9.61377 17.7773 11.0026 17.7773 12.7158C17.7773 14.429 19.1867 15.8178 20.9252 15.8178Z" fill="#13EA4B"/>
<path d="M20.806 31.4229C22.5445 31.4229 23.9538 30.0341 23.9538 28.3208C23.9538 26.6076 22.5445 25.2188 20.806 25.2188C19.0675 25.2188 17.6582 26.6076 17.6582 28.3208C17.6582 30.0341 19.0675 31.4229 20.806 31.4229Z" fill="#13EA4B"/>
<path d="M12.8334 23.873C14.5718 23.873 15.9812 22.4842 15.9812 20.771C15.9812 19.0578 14.5718 17.6689 12.8334 17.6689C11.0949 17.6689 9.68555 19.0578 9.68555 20.771C9.68555 22.4842 11.0949 23.873 12.8334 23.873Z" fill="#13EA4B"/>
<path d="M28.8802 23.4707C30.6187 23.4707 32.028 22.0818 32.028 20.3686C32.028 18.6554 30.6187 17.2666 28.8802 17.2666C27.1417 17.2666 25.7324 18.6554 25.7324 20.3686C25.7324 22.0818 27.1417 23.4707 28.8802 23.4707Z" fill="#13EA4B"/>
<path d="M12.9327 31.5891C10.8272 31.5834 8.76316 31.0111 6.96356 29.9339C1.77976 26.8692 -0.0243999 20.1771 2.94205 15.0143C4.5822 12.1656 7.62119 10.0489 11.0718 9.35107L11.6711 12.2309C9.05316 12.7608 6.76169 14.3429 5.54262 16.4628C3.36628 20.2502 4.69417 25.1659 8.50119 27.4116C12.2388 29.62 16.683 28.8585 19.8261 25.4705L22.034 27.4535C19.5059 30.1702 16.2319 31.5875 12.9327 31.5891Z" fill="#13EA4B"/>
<path d="M20.9757 39.7859C19.648 39.7799 18.3335 39.5252 17.1024 39.0352C13.6786 37.6987 10.6759 34.5795 9.26758 30.8978L12.059 29.8612C13.1803 32.7923 15.5285 35.2603 18.2095 36.3031C19.1603 36.6902 20.1844 36.8718 21.2125 36.8356C22.2406 36.7994 23.2489 36.5463 24.1692 36.0933C26.5254 34.9572 28.3074 32.6105 28.8216 29.97C29.0802 28.6366 28.8752 26.969 28.2444 25.275C27.7937 23.999 27.0047 22.8651 25.9592 21.9911C22.7404 19.4066 16.2035 19.921 13.4704 22.9718C13.4473 22.9977 13.4237 23.0257 13.3995 23.0557L11.0922 21.1907C11.138 21.1364 11.1837 21.082 11.231 21.0353C15.0854 16.732 23.3129 16.0808 27.8438 19.719C29.3044 20.9257 30.4095 22.4967 31.0436 24.2679C31.8606 26.4561 32.1113 28.6801 31.7502 30.5295C31.0531 34.1133 28.7096 37.1827 25.4813 38.7399C24.0811 39.4256 22.5392 39.7835 20.9757 39.7859Z" fill="#13EA4B"/>
</svg>
