<svg width="2518" height="452" viewBox="0 0 2518 452" fill="none" xmlns="http://www.w3.org/2000/svg">
<path fill-rule="evenodd" clip-rule="evenodd" d="M111.977 63.0689C105.289 74.1655 100.458 85.929 97.4238 98.039C63.061 108.607 33.4809 131.467 16.6157 161.045C-17.8917 221.686 3.09526 300.29 63.396 336.288C72.0306 341.507 81.1885 345.717 90.6878 348.867C107.267 391.561 141.903 427.637 181.342 443.183C195.663 448.937 210.953 451.93 226.398 452C244.586 451.972 262.522 447.768 278.81 439.714C313.798 422.673 339.852 390.212 349.806 351.812C385.468 341.692 416.288 318.351 433.697 287.923C468.204 227.264 447.236 148.66 386.935 112.68C375.588 105.907 363.729 100.934 351.638 97.7123C341.145 63.1517 318.074 33.415 288.091 16.5381C227.13 -17.7987 148.135 3.06626 111.977 63.0689ZM353.304 314.027C374.675 305.058 392.636 289.785 403.409 270.856C428.726 226.369 413.279 168.63 368.993 142.252C334.155 121.514 294.096 123.077 260.743 144.975C256.075 159.754 242.198 170.473 225.805 170.473C205.582 170.473 189.188 154.16 189.188 134.037C189.188 113.914 205.582 97.6013 225.805 97.6013C236.585 97.6013 246.278 102.237 252.979 109.615C271.914 99.5257 292.346 94.017 312.953 93.3108C303.794 73.4448 289.041 56.807 270.975 46.6398C226.267 21.4486 168.241 36.8006 141.733 80.8853C116.912 122.069 129.151 167.784 153.756 199.556C154.548 200.151 155.315 200.777 156.055 201.433C197.125 183.665 248.957 183.916 287.619 204.096C294.149 194.103 305.469 187.495 318.34 187.495C338.563 187.495 354.957 203.808 354.957 223.931C354.957 237.168 347.863 248.757 337.252 255.138C339.644 259.847 341.738 264.719 343.513 269.728C349.037 284.668 352.336 299.75 353.304 314.027ZM167.91 234.197C165.227 251.689 150.043 265.09 131.714 265.09C111.491 265.09 95.0969 248.777 95.0969 228.654C95.0969 215.994 101.586 204.841 111.435 198.311C100.75 178.645 94.742 157.467 93.704 136.333C73.7791 145.456 57.0848 160.117 46.867 178.058C21.5506 222.544 36.9972 280.283 81.2826 306.661C116.469 327.654 157.039 325.799 190.613 303.235C196.152 290.114 209.188 280.9 224.387 280.9C244.61 280.9 261.004 297.213 261.004 317.336C261.004 337.459 244.61 353.772 224.387 353.772C212.843 353.772 202.547 348.456 195.836 340.151C175.923 350.445 154.424 355.719 132.833 355.729C132.673 355.729 132.513 355.728 132.353 355.727C147.027 380.988 169.397 401.342 194.22 411.091C205.28 415.639 217.192 417.772 229.152 417.347C241.112 416.922 252.841 413.948 263.547 408.627C290.954 395.283 311.685 367.719 317.665 336.704C320.674 321.042 318.289 301.455 310.951 281.557C305.709 266.57 296.53 253.251 284.368 242.985C255.763 219.793 204.63 217.846 167.91 234.197Z" fill="#22D369"/>
<path fill-rule="evenodd" clip-rule="evenodd" d="M606.521 322.754C622.701 331.066 642.22 335.222 665.079 335.222C687.24 335.246 706.276 331.553 722.187 324.141C738.099 316.73 750.231 306.891 758.584 294.624C766.838 282.672 771.211 268.49 771.114 253.989C771.114 236.867 766.491 223.066 757.245 212.588C748.115 202.188 736.625 194.104 723.728 189.003C707.073 182.591 690.1 177.028 672.875 172.337C657.979 168.503 646.165 164.986 637.432 161.786C629.501 159.061 622.174 154.833 615.858 149.336C613.128 146.948 610.954 143.996 609.49 140.685C608.026 137.374 607.307 133.785 607.383 130.169C607.34 123.603 609.432 117.2 613.345 111.914C617.971 105.939 624.177 101.363 631.268 98.698C640.445 95.1636 650.233 93.47 660.07 93.7145C677.523 93.6293 691.325 97.1038 701.476 104.138C711.627 111.172 718.115 119.8 720.94 130.023H767.977C765.174 116.024 759.319 102.807 750.824 91.3049C742.214 79.549 730.271 69.9654 714.996 62.554C699.721 55.1427 681.424 51.437 660.107 51.437C640.074 51.3883 622.481 54.9662 607.328 62.1707C592.175 69.3751 580.556 79.1109 572.472 91.3779C564.569 103.044 560.346 116.793 560.346 130.862C560.346 147.973 564.969 161.707 574.215 172.063C583.297 182.297 594.637 190.301 607.346 195.447C623.947 201.908 640.93 207.352 658.199 211.748C673.095 215.862 684.91 219.513 693.642 222.701C701.601 225.485 708.963 229.733 715.345 235.224C718.142 237.638 720.369 240.637 721.866 244.008C723.363 247.378 724.093 251.036 724.003 254.719C724.112 261.782 721.952 268.695 717.84 274.453C713.718 280.209 707.23 284.748 698.375 288.07C689.521 291.393 678.416 293.054 665.06 293.054C645.798 293.054 630.321 288.582 618.628 279.637C607.578 271.597 599.519 260.138 595.715 247.053H548.715C552.067 262.662 558.632 277.411 567.996 290.371C578.022 304.101 591.24 315.212 606.521 322.754ZM831.325 310.487C845.072 324.933 863.888 332.155 887.773 332.155C901.152 332.492 914.379 329.279 926.096 322.846C936.245 317.315 944.812 309.305 950.991 299.571H952.147V327.555H994.524V133.966H952.11V237.469C952.297 247.909 949.916 258.237 945.175 267.553C940.898 276 934.277 283.051 926.096 287.87C917.86 292.641 908.475 295.095 898.945 294.971C884.807 294.971 873.568 290.754 865.227 282.32C856.886 273.887 852.715 261.492 852.715 245.136V133.966H810.723V249.827C810.711 275.822 817.578 296.042 831.325 310.487ZM1042.63 400.392V133.967H1084.63V161.951H1085.78C1089.08 157.229 1092.95 152.936 1097.32 149.173C1112.09 135.939 1131.4 128.844 1151.27 129.348C1167.47 129.189 1183.38 133.621 1197.14 142.127C1211.24 150.95 1222.69 163.4 1230.27 178.161C1238.67 194.458 1242.9 212.567 1242.58 230.88C1242.87 249.062 1238.64 267.034 1230.27 283.198C1222.69 297.959 1211.24 310.409 1197.14 319.232C1183.38 327.737 1167.47 332.169 1151.27 332.01C1131.41 332.582 1112.08 325.567 1097.25 312.405C1092.88 308.642 1089 304.349 1085.71 299.627H1084.55V400.446L1042.63 400.392ZM1142.41 294.972C1152.66 295.116 1162.73 292.39 1171.49 287.104C1180.27 281.679 1187.34 273.913 1191.91 264.687C1197.1 254.205 1199.68 242.635 1199.43 230.953C1199.69 219.164 1197.12 207.483 1191.91 196.89C1187.34 187.66 1180.27 179.888 1171.49 174.455C1162.73 169.175 1152.65 166.455 1142.41 166.606C1132.05 166.489 1121.85 169.204 1112.93 174.455C1103.98 179.795 1096.76 187.582 1092.13 196.89C1086.92 207.501 1084.35 219.202 1084.63 231.008C1084.37 242.688 1086.95 254.258 1092.13 264.742C1096.76 274.045 1103.98 281.826 1112.93 287.159C1121.86 292.397 1132.05 295.099 1142.41 294.972ZM1280.31 133.966V400.391L1322.28 400.373V299.553H1323.44C1326.74 304.27 1330.63 308.562 1334.99 312.331C1349.78 325.525 1369.08 332.591 1388.93 332.082C1405.13 332.244 1421.03 327.812 1434.79 319.304C1448.91 310.466 1460.36 297.988 1467.92 283.197C1476.31 267.038 1480.55 249.064 1480.25 230.879C1480.25 211.189 1476.14 193.616 1467.92 178.16C1460.35 163.395 1448.9 150.944 1434.79 142.126C1421.04 133.617 1405.13 129.185 1388.93 129.348C1369.07 128.85 1349.77 135.945 1335.01 149.172C1330.65 152.941 1326.76 157.233 1323.46 161.95H1322.3V133.966H1280.31ZM1409.11 287.103C1400.36 292.376 1390.31 295.101 1380.09 294.971C1369.73 295.099 1359.54 292.396 1350.62 287.158C1341.67 281.826 1334.45 274.044 1329.82 264.741C1324.63 254.259 1322.05 242.689 1322.3 231.007C1322.03 219.199 1324.61 207.499 1329.82 196.889C1334.42 187.571 1341.62 179.765 1350.55 174.4C1359.46 169.149 1369.66 166.434 1380.01 166.55C1390.26 166.4 1400.34 169.12 1409.11 174.4C1417.92 179.837 1425.02 187.63 1429.6 196.889C1434.78 207.49 1437.32 219.17 1437.03 230.952C1437.28 242.633 1434.71 254.203 1429.53 264.687C1424.96 273.912 1417.89 281.678 1409.11 287.103ZM1610.09 332.155C1591.58 332.406 1573.31 327.845 1557.11 318.921C1541.61 310.389 1528.76 297.794 1519.95 282.503C1510.9 266.828 1506.24 249.026 1506.46 230.952C1506.26 212.817 1510.92 194.955 1519.95 179.2C1528.71 163.824 1541.57 151.153 1557.11 142.582C1573.49 133.892 1591.76 129.346 1610.31 129.346C1628.87 129.346 1647.14 133.892 1663.51 142.582C1679.06 151.147 1691.93 163.819 1700.7 179.2C1709.73 194.955 1714.38 212.817 1714.18 230.952C1714.4 249.026 1709.75 266.828 1700.7 282.503C1691.89 297.798 1679.02 310.395 1663.51 318.921C1647.17 327.887 1628.76 332.449 1610.09 332.155ZM1610.09 294.971C1621.03 295.128 1631.8 292.347 1641.28 286.92C1650.52 281.558 1658.06 273.721 1663.04 264.303C1668.44 254.022 1671.16 242.553 1670.94 230.952C1671.19 219.225 1668.47 207.625 1663.04 197.218C1658.06 187.799 1650.52 179.963 1641.28 174.6C1631.8 169.174 1621.03 166.393 1610.09 166.55C1599.28 166.422 1588.63 169.204 1579.27 174.6C1570.03 179.961 1562.48 187.798 1557.5 197.218C1552.07 207.627 1549.36 219.227 1549.61 230.952C1549.38 242.551 1552.1 254.021 1557.5 264.303C1562.48 273.722 1570.03 281.559 1579.27 286.92C1588.63 292.317 1599.28 295.098 1610.09 294.971ZM1751.08 134.053V327.551L1793.07 327.606V224.103C1792.87 214.657 1795.2 205.328 1799.81 197.068C1804.19 189.358 1810.67 183.031 1818.5 178.813C1827.04 174.334 1836.59 172.091 1846.24 172.297H1872.05V131.279H1848.93C1835.58 131.266 1824.21 134.394 1814.83 140.661C1805.94 146.392 1798.81 154.452 1794.23 163.954H1793.07V134.053H1751.08ZM1910.56 327.549V171.145H1885.52V133.96H1910.56V91.7921H1952.93V133.96H2011.49V171.145H1952.93V290.365H2013.47V327.549H1910.56ZM2048.49 59.2126V327.554H2134.79V290.37H2090.48V59.2126H2048.49ZM2217.61 400.391L2239.96 327.555H2196.42L2144.41 134.057H2188.77L2229.13 290.462H2251.15L2297.76 134.057H2341.68L2261.93 400.574L2217.61 400.391ZM2351.26 290.371V327.555L2517.61 327.646V290.462H2407.06V288.162L2513.92 171.15V133.966H2355.18V171.15H2458.43V173.45L2351.26 290.371Z" fill="white"/>
</svg>
