<svg width="1064" height="653" viewBox="0 0 1064 653" fill="none" xmlns="http://www.w3.org/2000/svg">
<g clip-path="url(#clip0_350_4405)">
<path d="M412.688 661.545C272.4 533.278 236.352 340.422 325.066 192.565C419.674 34.7747 626.358 -20.1347 785.835 70.1681C873.857 120.007 939.258 212.469 960.788 317.521L871.819 335.715C855.493 256.026 806.6 186.282 741.102 149.191C624.126 82.9403 472.425 123.343 402.9 239.263C325.66 368.076 385.591 513.713 473.977 594.531L412.688 661.545Z" fill="#1E8E81"/>
<path d="M919.172 958.763L900.978 869.806C980.68 853.48 1050.4 804.611 1087.53 739.088C1153.75 622.113 1113.35 470.4 997.443 400.886C883.718 332.695 748.379 356.226 652.74 460.914L585.713 399.649C709.857 263.861 894.089 233.053 1044.2 323.053C1201.99 417.661 1256.9 624.394 1166.6 783.87C1116.7 871.856 1024.22 937.257 919.172 958.763Z" fill="#1E8E81"/>
<path d="M622.817 475.021C675.744 475.021 718.65 432.115 718.65 379.187C718.65 326.259 675.744 283.353 622.817 283.353C569.889 283.353 526.983 326.259 526.983 379.187C526.983 432.115 569.889 475.021 622.817 475.021Z" fill="#1E8E81"/>
<path d="M376.555 723.866C429.483 723.866 472.389 680.96 472.389 628.032C472.389 575.105 429.483 532.198 376.555 532.198C323.627 532.198 280.721 575.105 280.721 628.032C280.721 680.96 323.627 723.866 376.555 723.866Z" fill="#1E8E81"/>
<path d="M864.979 711.433C917.906 711.433 960.813 668.527 960.813 615.6C960.813 562.672 917.906 519.766 864.979 519.766C812.051 519.766 769.145 562.672 769.145 615.6C769.145 668.527 812.051 711.433 864.979 711.433Z" fill="#1E8E81"/>
<path d="M379.648 962.159C317.582 962.159 255.286 945.42 197.938 911.034C40.1115 816.401 -14.798 609.681 75.5049 450.216C125.344 362.194 217.818 296.792 322.858 275.336L341.052 364.292C261.375 380.57 191.643 429.439 154.527 494.961C88.2892 611.937 128.704 763.65 244.6 833.151C358.349 901.355 493.651 877.811 589.315 773.16L656.33 834.498C579.624 918.336 479.957 962.159 379.648 962.159Z" fill="#1E8E81"/>
<path d="M624.297 1215.36C584.997 1215.36 545.395 1207.64 506.375 1192.18C402.172 1150.87 310.802 1054.55 267.925 940.811L352.891 908.778C387.023 999.335 458.671 1075.58 539.852 1107.7C600.669 1131.9 663.474 1129.66 721.295 1101.34C792.991 1066.17 847.246 993.744 862.88 912.125C870.777 870.958 864.53 819.457 845.305 767.131C829.937 725.285 805.897 690.219 775.78 665.694C677.775 585.834 478.781 601.712 395.586 696.017C394.87 696.818 394.155 697.691 393.427 698.576L323.222 640.974C324.605 639.284 326.012 637.623 327.443 635.989C444.758 503.076 695.192 482.966 833.127 595.319C875.859 630.119 909.542 678.721 930.55 735.838C955.379 803.422 963.069 872.099 952.055 929.252C930.841 1039.93 859.508 1134.75 761.237 1182.86C717.049 1204.51 670.885 1215.36 624.297 1215.36Z" fill="#1E8E81"/>
</g>
<defs>
<clipPath id="clip0_350_4405">
<rect width="1064" height="653" fill="white"/>
</clipPath>
</defs>
</svg>
