<svg width="229" height="568" viewBox="0 0 229 568" fill="none" xmlns="http://www.w3.org/2000/svg">
<g style="mix-blend-mode:soft-light" opacity="0.15" clip-path="url(#clip0_350_4416)">
<path d="M-130.801 302.723C-194.624 245.209 -211.027 158.723 -170.685 92.4269C-127.634 21.6754 -33.5806 -2.92724 39.0013 37.5606C79.0819 59.9032 108.787 101.36 118.573 148.52L78.0991 156.7C70.6727 120.947 48.4372 89.6718 18.6225 73.0548C-34.6072 43.3508 -103.694 61.453 -135.256 113.435C-170.401 171.186 -143.142 236.491 -102.93 272.717L-130.801 302.723Z" fill="white"/>
<path d="M99.6357 435.982L91.3574 396.054C127.637 388.735 159.353 366.823 176.237 337.442C206.379 284.986 187.988 216.904 135.26 185.801C83.4505 155.257 21.9426 165.74 -21.589 212.728L-51.9717 185.263C4.51249 124.391 88.3432 110.572 156.622 150.931C228.418 193.356 253.384 286.041 212.298 357.568C189.517 397.001 147.448 426.339 99.6357 435.982Z" fill="white"/>
<path d="M-35.1968 219.078C-11.1187 219.078 8.40047 199.843 8.40047 176.115C8.40047 152.387 -11.1187 133.152 -35.1968 133.152C-59.2748 133.152 -78.7939 152.387 -78.7939 176.115C-78.7939 199.843 -59.2748 219.078 -35.1968 219.078Z" fill="white"/>
<path d="M-36.8349 435.207C-12.7569 435.207 6.76229 415.972 6.76229 392.244C6.76229 368.516 -12.7569 349.281 -36.8349 349.281C-60.913 349.281 -80.4321 368.516 -80.4321 392.244C-80.4321 415.972 -60.913 435.207 -36.8349 435.207Z" fill="white"/>
<path d="M74.9981 325.066C99.0762 325.066 118.595 305.83 118.595 282.102C118.595 258.374 99.0762 239.139 74.9981 239.139C50.92 239.139 31.4009 258.374 31.4009 282.102C31.4009 305.83 50.92 325.066 74.9981 325.066Z" fill="white"/>
<path d="M-34.4971 551.031C-52.8858 550.948 -71.0907 547.42 -88.1418 540.634C-135.561 522.123 -177.149 478.923 -196.654 427.931L-157.993 413.574C-142.464 454.17 -109.94 488.351 -72.8085 502.794C-59.6398 508.156 -45.4569 510.671 -31.2174 510.17C-16.9779 509.669 -3.01331 506.163 9.73357 499.888C42.366 484.154 67.0478 451.652 74.1683 415.081C77.7505 396.613 74.911 373.517 66.174 350.055C59.9327 332.383 49.0047 316.679 34.5246 304.574C-10.0555 268.778 -100.592 275.903 -138.445 318.156C-138.765 318.514 -139.093 318.902 -139.427 319.318L-171.383 293.488C-170.749 292.735 -170.116 291.982 -169.461 291.336C-116.078 231.734 -2.12679 222.715 60.6261 273.105C80.8559 289.817 96.1613 311.575 104.944 336.107C116.258 366.414 119.731 397.216 114.729 422.83C105.075 472.466 72.6176 514.977 27.9064 536.545C8.51326 546.041 -12.842 550.998 -34.4971 551.031Z" fill="white"/>
</g>
<defs>
<clipPath id="clip0_350_4416">
<rect width="229" height="568" fill="white"/>
</clipPath>
</defs>
</svg>
