<svg width="736" height="724" viewBox="0 0 736 724" fill="none" xmlns="http://www.w3.org/2000/svg">
<g filter="url(#filter0_d_202_2946)">
<ellipse cx="377.376" cy="360.469" rx="302.023" ry="301.977" fill="white"/>
</g>
<g filter="url(#filter1_ddd_202_2946)">
<ellipse cx="373.68" cy="359.897" rx="230.852" ry="230.816" fill="#EDF2F5"/>
<path d="M603.283 359.897C603.283 486.683 500.486 589.464 373.68 589.464C246.873 589.464 144.077 486.683 144.077 359.897C144.077 233.11 246.873 130.329 373.68 130.329C500.486 130.329 603.283 233.11 603.283 359.897Z" stroke="#22D369" stroke-width="2.49725"/>
</g>
<g filter="url(#filter2_dd_202_2946)">
<ellipse cx="373.252" cy="358.416" rx="144.321" ry="144.299" fill="#EDF2F5"/>
<path d="M517.261 358.416C517.261 437.938 452.786 502.403 373.252 502.403C293.718 502.403 229.243 437.938 229.243 358.416C229.243 278.894 293.718 214.429 373.252 214.429C452.786 214.429 517.261 278.894 517.261 358.416Z" stroke="white" stroke-width="0.624312"/>
</g>
<g clip-path="url(#clip0_202_2946)">
<path d="M345.88 363.585C327.93 347.412 323.317 323.091 334.663 304.449C346.771 284.553 373.223 277.635 393.636 289.02C404.909 295.303 413.264 306.961 416.016 320.222L404.633 322.522C402.544 312.469 396.29 303.674 387.905 299.001C372.934 290.648 353.504 295.739 344.627 310.356C334.743 326.596 342.409 344.96 353.719 355.147L345.88 363.585Z" fill="#22D369"/>
<path d="M410.689 401.058L408.361 389.83C418.565 387.772 427.485 381.61 432.233 373.348C440.711 358.598 435.538 339.453 420.709 330.706C406.137 322.117 388.838 325.065 376.595 338.278L368.05 330.555C383.936 313.438 407.513 309.552 426.717 320.901C446.909 332.831 453.931 358.894 442.375 379.008C435.968 390.096 424.137 398.346 410.689 401.058Z" fill="#22D369"/>
<path d="M372.767 340.063C379.539 340.063 385.029 334.654 385.029 327.982C385.029 321.309 379.539 315.9 372.767 315.9C365.996 315.9 360.506 321.309 360.506 327.982C360.506 334.654 365.996 340.063 372.767 340.063Z" fill="#22D369"/>
<path d="M372.308 400.84C379.08 400.84 384.57 395.431 384.57 388.758C384.57 382.086 379.08 376.677 372.308 376.677C365.536 376.677 360.046 382.086 360.046 388.758C360.046 395.431 365.536 400.84 372.308 400.84Z" fill="#22D369"/>
<path d="M341.254 371.435C348.026 371.435 353.516 366.026 353.516 359.354C353.516 352.681 348.026 347.272 341.254 347.272C334.482 347.272 328.993 352.681 328.993 359.354C328.993 366.026 334.482 371.435 341.254 371.435Z" fill="#22D369"/>
<path d="M403.76 369.868C410.532 369.868 416.021 364.459 416.021 357.786C416.021 351.114 410.532 345.705 403.76 345.705C396.988 345.705 391.498 351.114 391.498 357.786C391.498 364.459 396.988 369.868 403.76 369.868Z" fill="#22D369"/>
<path d="M341.635 401.487C333.433 401.465 325.393 399.236 318.383 395.041C298.191 383.105 291.163 357.041 302.718 336.934C309.107 325.839 320.945 317.595 334.386 314.877L336.72 326.093C326.523 328.157 317.597 334.319 312.848 342.575C304.371 357.326 309.543 376.471 324.373 385.217C338.932 393.818 356.243 390.852 368.486 377.657L377.086 385.381C367.239 395.961 354.486 401.481 341.635 401.487Z" fill="#22D369"/>
<path d="M372.965 433.41C367.793 433.387 362.673 432.395 357.878 430.487C344.541 425.281 332.845 413.133 327.359 398.794L338.232 394.757C342.6 406.172 351.747 415.784 362.19 419.846C365.894 421.354 369.883 422.061 373.888 421.92C377.892 421.779 381.82 420.793 385.405 419.029C394.583 414.604 401.524 405.464 403.527 395.18C404.534 389.987 403.736 383.492 401.279 376.895C399.523 371.925 396.45 367.509 392.377 364.105C379.839 354.039 354.376 356.043 343.73 367.925C343.64 368.026 343.548 368.134 343.454 368.251L334.466 360.988C334.645 360.776 334.823 360.564 335.007 360.383C350.021 343.623 382.069 341.086 399.718 355.256C405.408 359.956 409.712 366.074 412.183 372.973C415.365 381.495 416.341 390.157 414.935 397.359C412.219 411.317 403.091 423.272 390.516 429.337C385.062 432.007 379.056 433.401 372.965 433.41Z" fill="#22D369"/>
</g>
<g filter="url(#filter3_dd_202_2946)">
<ellipse cx="377.064" cy="62.0315" rx="59.0405" ry="59.0315" fill="#EDF2F5"/>
<path d="M435.977 62.0315C435.977 94.5631 409.601 120.935 377.064 120.935C344.527 120.935 318.151 94.5631 318.151 62.0315C318.151 29.4998 344.527 3.1277 377.064 3.1277C409.601 3.1277 435.977 29.4998 435.977 62.0315Z" stroke="white" stroke-width="0.2554"/>
</g>
<g clip-path="url(#clip1_202_2946)">
<path d="M389.712 53.306C393.612 56.0921 398.39 57.7314 403.55 57.7314V47.8082C402.574 47.8084 401.6 47.7065 400.644 47.5042V55.3153C395.484 55.3153 390.707 53.6761 386.806 50.8902V71.1409C386.806 81.2714 378.588 89.4831 368.451 89.4831C364.669 89.4831 361.154 88.3405 358.233 86.3806C361.566 89.7864 366.215 91.8991 371.357 91.8991C381.494 91.8991 389.712 83.6874 389.712 73.5564V53.306H389.712ZM393.297 43.2946C391.304 41.1185 389.995 38.3063 389.712 35.1972V33.9209H386.958C387.651 37.8724 390.016 41.2484 393.297 43.2946ZM364.645 78.607C363.531 77.1479 362.929 75.3628 362.932 73.5274C362.932 68.8942 366.691 65.1374 371.328 65.1374C372.192 65.137 373.051 65.2696 373.875 65.5306V55.3854C372.912 55.2537 371.941 55.1975 370.97 55.2182V63.1146C370.146 62.8534 369.286 62.7209 368.422 62.7217C363.785 62.7217 360.026 66.478 360.026 71.1118C360.026 74.3884 361.905 77.2251 364.645 78.607Z" fill="#FF004F"/>
<path d="M386.806 50.89C390.708 53.6759 395.485 55.315 400.645 55.315V47.504C397.764 46.8908 395.215 45.3868 393.297 43.2946C390.016 41.2482 387.652 37.8722 386.958 33.9209H379.725V73.556C379.708 78.1767 375.956 81.918 371.328 81.918C368.602 81.918 366.179 80.6192 364.645 78.6068C361.905 77.2251 360.026 74.3882 360.026 71.1121C360.026 66.4786 363.785 62.7219 368.422 62.7219C369.311 62.7219 370.167 62.8601 370.97 63.1148V55.2184C361.012 55.424 353.003 63.5555 353.003 73.5562C353.003 78.5485 354.997 83.0742 358.234 86.3811C361.154 88.3404 364.67 89.4835 368.452 89.4835C378.589 89.4835 386.807 81.2712 386.807 71.1409V50.8902L386.806 50.89Z" fill="black"/>
<path d="M400.644 47.5038V45.3922C398.047 45.3962 395.501 44.6693 393.297 43.2946C395.248 45.4288 397.817 46.9005 400.644 47.5042V47.5038ZM386.958 33.9207C386.892 33.5431 386.841 33.1631 386.806 32.7814V31.5051H376.818V71.1407C376.802 75.7609 373.05 79.5022 368.422 79.5022C367.11 79.5042 365.816 79.1976 364.644 78.6072C366.179 80.6192 368.601 81.9178 371.328 81.9178C375.955 81.9178 379.708 78.1769 379.724 73.5562V33.9209H386.958V33.9207ZM370.971 55.2182V52.9698C370.136 52.8558 369.295 52.7987 368.452 52.7991C358.314 52.7991 350.097 61.0112 350.097 71.1407C350.097 77.4915 353.326 83.0884 358.234 86.3806C354.997 83.074 353.003 78.5481 353.003 73.556C353.003 63.5555 361.012 55.4238 370.971 55.2182Z" fill="#00F2EA"/>
</g>
<g filter="url(#filter4_dd_202_2946)">
<ellipse cx="377.064" cy="657.969" rx="59.0405" ry="59.0315" fill="#EDF2F5"/>
<path d="M435.977 657.968C435.977 690.5 409.601 716.872 377.064 716.872C344.527 716.872 318.151 690.5 318.151 657.968C318.151 625.437 344.527 599.065 377.064 599.065C409.601 599.065 435.977 625.437 435.977 657.968Z" stroke="white" stroke-width="0.2554"/>
</g>
<g clip-path="url(#clip2_202_2946)">
<path d="M391.024 631.005H362.625C355.706 631.005 350.097 636.614 350.097 643.532V671.926C350.097 678.844 355.706 684.453 362.625 684.453H391.024C397.943 684.453 403.552 678.844 403.552 671.926V643.532C403.552 636.614 397.943 631.005 391.024 631.005Z" fill="url(#paint0_radial_202_2946)"/>
<path d="M391.024 631.005H362.625C355.706 631.005 350.097 636.614 350.097 643.532V671.926C350.097 678.844 355.706 684.453 362.625 684.453H391.024C397.943 684.453 403.552 678.844 403.552 671.926V643.532C403.552 636.614 397.943 631.005 391.024 631.005Z" fill="url(#paint1_radial_202_2946)"/>
<path d="M376.826 636.851C371.155 636.851 370.444 636.876 368.216 636.977C365.993 637.079 364.476 637.431 363.148 637.947C361.775 638.48 360.61 639.194 359.449 640.354C358.288 641.515 357.574 642.68 357.039 644.052C356.521 645.38 356.169 646.898 356.069 649.12C355.969 651.347 355.943 652.059 355.943 657.729C355.943 663.399 355.968 664.109 356.069 666.335C356.172 668.558 356.524 670.075 357.04 671.403C357.573 672.776 358.287 673.941 359.448 675.101C360.608 676.263 361.773 676.978 363.146 677.511C364.474 678.027 365.992 678.379 368.215 678.481C370.442 678.582 371.153 678.607 376.824 678.607C382.495 678.607 383.205 678.582 385.432 678.481C387.655 678.379 389.174 678.027 390.503 677.511C391.876 676.978 393.039 676.263 394.199 675.101C395.361 673.941 396.074 672.776 396.609 671.403C397.122 670.075 397.475 668.558 397.579 666.336C397.679 664.109 397.705 663.399 397.705 657.729C397.705 652.059 397.679 651.347 397.579 649.12C397.475 646.897 397.122 645.38 396.609 644.053C396.074 642.68 395.361 641.515 394.199 640.354C393.038 639.193 391.876 638.48 390.501 637.947C389.17 637.431 387.652 637.079 385.429 636.977C383.202 636.876 382.493 636.851 376.82 636.851H376.826ZM374.953 640.613C375.509 640.612 376.129 640.613 376.826 640.613C382.402 640.613 383.062 640.633 385.264 640.733C387.3 640.826 388.405 641.166 389.141 641.452C390.116 641.831 390.81 642.283 391.541 643.014C392.272 643.745 392.724 644.441 393.103 645.415C393.389 646.15 393.73 647.255 393.822 649.29C393.922 651.491 393.944 652.152 393.944 657.724C393.944 663.296 393.922 663.957 393.822 666.158C393.729 668.193 393.389 669.298 393.103 670.033C392.725 671.008 392.272 671.702 391.541 672.432C390.81 673.163 390.116 673.615 389.141 673.993C388.406 674.28 387.3 674.62 385.264 674.713C383.063 674.813 382.402 674.834 376.826 674.834C371.251 674.834 370.59 674.813 368.389 674.713C366.353 674.619 365.248 674.279 364.511 673.993C363.537 673.614 362.841 673.162 362.11 672.431C361.379 671.701 360.927 671.007 360.547 670.032C360.261 669.297 359.921 668.192 359.828 666.156C359.728 663.955 359.708 663.294 359.708 657.719C359.708 652.144 359.728 651.486 359.828 649.285C359.921 647.249 360.261 646.145 360.547 645.409C360.926 644.434 361.379 643.738 362.11 643.008C362.841 642.277 363.537 641.825 364.511 641.445C365.247 641.158 366.353 640.819 368.389 640.726C370.315 640.638 371.061 640.612 374.953 640.608V640.613ZM387.973 644.08C386.589 644.08 385.467 645.201 385.467 646.584C385.467 647.967 386.589 649.09 387.973 649.09C389.356 649.09 390.478 647.967 390.478 646.584C390.478 645.201 389.356 644.079 387.973 644.079V644.08ZM376.826 647.007C370.904 647.007 366.103 651.808 366.103 657.729C366.103 663.65 370.904 668.448 376.826 668.448C382.748 668.448 387.548 663.65 387.548 657.729C387.548 651.808 382.748 647.007 376.826 647.007H376.826ZM376.826 650.769C380.67 650.769 383.787 653.885 383.787 657.729C383.787 661.572 380.67 664.688 376.826 664.688C372.982 664.688 369.866 661.572 369.866 657.729C369.866 653.885 372.982 650.769 376.826 650.769Z" fill="white"/>
</g>
<g filter="url(#filter5_dd_202_2946)">
<ellipse cx="75.0405" cy="354.21" rx="59.0405" ry="59.0315" fill="#EDF2F5"/>
<path d="M133.636 354.21C133.636 386.566 107.402 412.796 75.0405 412.796C42.6791 412.796 16.4451 386.566 16.4451 354.21C16.4451 321.854 42.6791 295.624 75.0405 295.624C107.402 295.624 133.636 321.854 133.636 354.21Z" stroke="white" stroke-width="0.890274"/>
</g>
<path d="M96.7882 330.155H52.8169C51.3108 330.155 50.0898 331.375 50.0898 332.881V376.846C50.0898 378.352 51.3108 379.572 52.8169 379.572H96.7882C98.2943 379.572 99.5152 378.352 99.5152 376.846V332.881C99.5152 331.375 98.2943 330.155 96.7882 330.155Z" fill="#3D5A98"/>
<path d="M84.1895 379.568V360.431H90.6125L91.573 352.974H84.1895V348.214C84.1895 346.055 84.7908 344.581 87.8854 344.581H91.8361V337.9C89.923 337.701 88.0005 337.606 86.0771 337.616C80.3891 337.616 76.4718 341.082 76.4718 347.474V352.974H70.0488V360.431H76.4718V379.568H84.1895Z" fill="white"/>
<g filter="url(#filter6_dd_202_2946)">
<ellipse cx="671.959" cy="356.882" rx="59.0405" ry="59.0315" fill="#EDF2F5"/>
<path d="M730.872 356.882C730.872 389.414 704.496 415.786 671.959 415.786C639.423 415.786 613.047 389.414 613.047 356.882C613.047 324.351 639.423 297.979 671.959 297.979C704.496 297.979 730.872 324.351 730.872 356.882Z" stroke="white" stroke-width="0.2554"/>
</g>
<g clip-path="url(#clip3_202_2946)">
<path d="M687.088 332.424H695.287L677.379 352.942L698.448 380.861H681.953L669.034 363.925L654.25 380.861H646.048L665.202 358.914L644.992 332.424H661.907L673.584 347.901L687.088 332.424ZM684.215 375.944H688.759L659.435 337.084H654.564L684.215 375.944Z" fill="black"/>
</g>
<defs>
<filter id="filter0_d_202_2946" x="60.0061" y="58.4919" width="634.739" height="634.647" filterUnits="userSpaceOnUse" color-interpolation-filters="sRGB">
<feFlood flood-opacity="0" result="BackgroundImageFix"/>
<feColorMatrix in="SourceAlpha" type="matrix" values="0 0 0 0 0 0 0 0 0 0 0 0 0 0 0 0 0 0 127 0" result="hardAlpha"/>
<feOffset dy="15.3465"/>
<feGaussianBlur stdDeviation="7.67323"/>
<feComposite in2="hardAlpha" operator="out"/>
<feColorMatrix type="matrix" values="0 0 0 0 0.167708 0 0 0 0 0.436641 0 0 0 0 0.583333 0 0 0 0.12 0"/>
<feBlend mode="normal" in2="BackgroundImageFix" result="effect1_dropShadow_202_2946"/>
<feBlend mode="normal" in="SourceGraphic" in2="effect1_dropShadow_202_2946" result="shape"/>
</filter>
<filter id="filter1_ddd_202_2946" x="75.0706" y="90.1199" width="597.218" height="597.147" filterUnits="userSpaceOnUse" color-interpolation-filters="sRGB">
<feFlood flood-opacity="0" result="BackgroundImageFix"/>
<feColorMatrix in="SourceAlpha" type="matrix" values="0 0 0 0 0 0 0 0 0 0 0 0 0 0 0 0 0 0 127 0" result="hardAlpha"/>
<feOffset dy="1.91503"/>
<feGaussianBlur stdDeviation="2.25297"/>
<feColorMatrix type="matrix" values="0 0 0 0 0 0 0 0 0 0 0 0 0 0 0 0 0 0 0.0363503 0"/>
<feBlend mode="normal" in2="BackgroundImageFix" result="effect1_dropShadow_202_2946"/>
<feColorMatrix in="SourceAlpha" type="matrix" values="0 0 0 0 0 0 0 0 0 0 0 0 0 0 0 0 0 0 127 0" result="hardAlpha"/>
<feOffset dy="6.43217"/>
<feGaussianBlur stdDeviation="7.56726"/>
<feColorMatrix type="matrix" values="0 0 0 0 0 0 0 0 0 0 0 0 0 0 0 0 0 0 0.0536497 0"/>
<feBlend mode="normal" in2="effect1_dropShadow_202_2946" result="effect2_dropShadow_202_2946"/>
<feColorMatrix in="SourceAlpha" type="matrix" values="0 0 0 0 0 0 0 0 0 0 0 0 0 0 0 0 0 0 127 0" result="hardAlpha"/>
<feOffset dy="28.7969"/>
<feGaussianBlur stdDeviation="33.8787"/>
<feColorMatrix type="matrix" values="0 0 0 0 0 0 0 0 0 0 0 0 0 0 0 0 0 0 0.09 0"/>
<feBlend mode="normal" in2="effect2_dropShadow_202_2946" result="effect3_dropShadow_202_2946"/>
<feBlend mode="normal" in="SourceGraphic" in2="effect3_dropShadow_202_2946" result="shape"/>
</filter>
<filter id="filter2_dd_202_2946" x="217.775" y="207.702" width="310.954" height="310.91" filterUnits="userSpaceOnUse" color-interpolation-filters="sRGB">
<feFlood flood-opacity="0" result="BackgroundImageFix"/>
<feColorMatrix in="SourceAlpha" type="matrix" values="0 0 0 0 0 0 0 0 0 0 0 0 0 0 0 0 0 0 127 0" result="hardAlpha"/>
<feOffset dy="1.41159"/>
<feGaussianBlur stdDeviation="1.66069"/>
<feColorMatrix type="matrix" values="0 0 0 0 0 0 0 0 0 0 0 0 0 0 0 0 0 0 0.0363503 0"/>
<feBlend mode="normal" in2="BackgroundImageFix" result="effect1_dropShadow_202_2946"/>
<feColorMatrix in="SourceAlpha" type="matrix" values="0 0 0 0 0 0 0 0 0 0 0 0 0 0 0 0 0 0 127 0" result="hardAlpha"/>
<feOffset dy="4.74124"/>
<feGaussianBlur stdDeviation="5.57793"/>
<feColorMatrix type="matrix" values="0 0 0 0 0 0 0 0 0 0 0 0 0 0 0 0 0 0 0.0536497 0"/>
<feBlend mode="normal" in2="effect1_dropShadow_202_2946" result="effect2_dropShadow_202_2946"/>
<feBlend mode="normal" in="SourceGraphic" in2="effect2_dropShadow_202_2946" result="shape"/>
</filter>
<filter id="filter3_dd_202_2946" x="313.46" y="0.375838" width="127.209" height="127.191" filterUnits="userSpaceOnUse" color-interpolation-filters="sRGB">
<feFlood flood-opacity="0" result="BackgroundImageFix"/>
<feColorMatrix in="SourceAlpha" type="matrix" values="0 0 0 0 0 0 0 0 0 0 0 0 0 0 0 0 0 0 127 0" result="hardAlpha"/>
<feOffset dy="0.577469"/>
<feGaussianBlur stdDeviation="0.679375"/>
<feColorMatrix type="matrix" values="0 0 0 0 0 0 0 0 0 0 0 0 0 0 0 0 0 0 0.0363503 0"/>
<feBlend mode="normal" in2="BackgroundImageFix" result="effect1_dropShadow_202_2946"/>
<feColorMatrix in="SourceAlpha" type="matrix" values="0 0 0 0 0 0 0 0 0 0 0 0 0 0 0 0 0 0 127 0" result="hardAlpha"/>
<feOffset dy="1.9396"/>
<feGaussianBlur stdDeviation="2.28188"/>
<feColorMatrix type="matrix" values="0 0 0 0 0 0 0 0 0 0 0 0 0 0 0 0 0 0 0.0536497 0"/>
<feBlend mode="normal" in2="effect1_dropShadow_202_2946" result="effect2_dropShadow_202_2946"/>
<feBlend mode="normal" in="SourceGraphic" in2="effect2_dropShadow_202_2946" result="shape"/>
</filter>
<filter id="filter4_dd_202_2946" x="313.46" y="596.313" width="127.209" height="127.191" filterUnits="userSpaceOnUse" color-interpolation-filters="sRGB">
<feFlood flood-opacity="0" result="BackgroundImageFix"/>
<feColorMatrix in="SourceAlpha" type="matrix" values="0 0 0 0 0 0 0 0 0 0 0 0 0 0 0 0 0 0 127 0" result="hardAlpha"/>
<feOffset dy="0.577469"/>
<feGaussianBlur stdDeviation="0.679375"/>
<feColorMatrix type="matrix" values="0 0 0 0 0 0 0 0 0 0 0 0 0 0 0 0 0 0 0.0363503 0"/>
<feBlend mode="normal" in2="BackgroundImageFix" result="effect1_dropShadow_202_2946"/>
<feColorMatrix in="SourceAlpha" type="matrix" values="0 0 0 0 0 0 0 0 0 0 0 0 0 0 0 0 0 0 127 0" result="hardAlpha"/>
<feOffset dy="1.9396"/>
<feGaussianBlur stdDeviation="2.28188"/>
<feColorMatrix type="matrix" values="0 0 0 0 0 0 0 0 0 0 0 0 0 0 0 0 0 0 0.0536497 0"/>
<feBlend mode="normal" in2="effect1_dropShadow_202_2946" result="effect2_dropShadow_202_2946"/>
<feBlend mode="normal" in="SourceGraphic" in2="effect2_dropShadow_202_2946" result="shape"/>
</filter>
<filter id="filter5_dd_202_2946" x="0.0916471" y="286.031" width="149.898" height="149.88" filterUnits="userSpaceOnUse" color-interpolation-filters="sRGB">
<feFlood flood-opacity="0" result="BackgroundImageFix"/>
<feColorMatrix in="SourceAlpha" type="matrix" values="0 0 0 0 0 0 0 0 0 0 0 0 0 0 0 0 0 0 127 0" result="hardAlpha"/>
<feOffset dy="2.01294"/>
<feGaussianBlur stdDeviation="2.36817"/>
<feColorMatrix type="matrix" values="0 0 0 0 0 0 0 0 0 0 0 0 0 0 0 0 0 0 0.0363503 0"/>
<feBlend mode="normal" in2="BackgroundImageFix" result="effect1_dropShadow_202_2946"/>
<feColorMatrix in="SourceAlpha" type="matrix" values="0 0 0 0 0 0 0 0 0 0 0 0 0 0 0 0 0 0 127 0" result="hardAlpha"/>
<feOffset dy="6.76105"/>
<feGaussianBlur stdDeviation="7.95418"/>
<feColorMatrix type="matrix" values="0 0 0 0 0 0 0 0 0 0 0 0 0 0 0 0 0 0 0.0536497 0"/>
<feBlend mode="normal" in2="effect1_dropShadow_202_2946" result="effect2_dropShadow_202_2946"/>
<feBlend mode="normal" in="SourceGraphic" in2="effect2_dropShadow_202_2946" result="shape"/>
</filter>
<filter id="filter6_dd_202_2946" x="608.355" y="295.227" width="127.209" height="127.191" filterUnits="userSpaceOnUse" color-interpolation-filters="sRGB">
<feFlood flood-opacity="0" result="BackgroundImageFix"/>
<feColorMatrix in="SourceAlpha" type="matrix" values="0 0 0 0 0 0 0 0 0 0 0 0 0 0 0 0 0 0 127 0" result="hardAlpha"/>
<feOffset dy="0.577469"/>
<feGaussianBlur stdDeviation="0.679375"/>
<feColorMatrix type="matrix" values="0 0 0 0 0 0 0 0 0 0 0 0 0 0 0 0 0 0 0.0363503 0"/>
<feBlend mode="normal" in2="BackgroundImageFix" result="effect1_dropShadow_202_2946"/>
<feColorMatrix in="SourceAlpha" type="matrix" values="0 0 0 0 0 0 0 0 0 0 0 0 0 0 0 0 0 0 127 0" result="hardAlpha"/>
<feOffset dy="1.9396"/>
<feGaussianBlur stdDeviation="2.28188"/>
<feColorMatrix type="matrix" values="0 0 0 0 0 0 0 0 0 0 0 0 0 0 0 0 0 0 0.0536497 0"/>
<feBlend mode="normal" in2="effect1_dropShadow_202_2946" result="effect2_dropShadow_202_2946"/>
<feBlend mode="normal" in="SourceGraphic" in2="effect2_dropShadow_202_2946" result="shape"/>
</filter>
<radialGradient id="paint0_radial_202_2946" cx="0" cy="0" r="1" gradientUnits="userSpaceOnUse" gradientTransform="translate(364.296 688.569) rotate(-90) scale(52.9702 49.274)">
<stop stop-color="#FFDD55"/>
<stop offset="0.1" stop-color="#FFDD55"/>
<stop offset="0.5" stop-color="#FF543E"/>
<stop offset="1" stop-color="#C837AB"/>
</radialGradient>
<radialGradient id="paint1_radial_202_2946" cx="0" cy="0" r="1" gradientUnits="userSpaceOnUse" gradientTransform="translate(341.143 634.855) rotate(78.6793) scale(23.6781 97.6157)">
<stop stop-color="#3771C8"/>
<stop offset="0.128" stop-color="#3771C8"/>
<stop offset="1" stop-color="#6600FF" stop-opacity="0"/>
</radialGradient>
<clipPath id="clip0_202_2946">
<rect x="295.157" y="278.458" width="155.811" height="159.682" fill="white"/>
</clipPath>
<clipPath id="clip1_202_2946">
<rect width="53.4554" height="60.5457" fill="white" transform="translate(350.097 31.5051)"/>
</clipPath>
<clipPath id="clip2_202_2946">
<rect width="53.4554" height="53.4472" fill="white" transform="translate(350.097 631.005)"/>
</clipPath>
<clipPath id="clip3_202_2946">
<rect width="53.4554" height="53.4473" fill="white" transform="translate(644.992 329.919)"/>
</clipPath>
</defs>
</svg>
