<svg width="907" height="907" viewBox="0 0 907 907" fill="none" xmlns="http://www.w3.org/2000/svg">
<g filter="url(#filter0_ddd_202_2946)">
<ellipse cx="453.56" cy="405.234" rx="338.903" ry="338.903" fill="white"/>
<path d="M791.06 405.234C791.06 591.63 639.957 742.735 453.56 742.735C267.164 742.735 116.06 591.63 116.06 405.234C116.06 218.838 267.164 67.7338 453.56 67.7338C639.957 67.7338 791.06 218.838 791.06 405.234Z" stroke="#29C673" stroke-opacity="0.5" stroke-width="2.80503"/>
</g>
<g filter="url(#filter1_ddd_202_2946)">
<ellipse cx="449.702" cy="404.884" rx="259.264" ry="259.264" fill="#EDF2F5"/>
<path d="M707.563 404.884C707.563 547.297 592.115 662.746 449.702 662.746C307.289 662.746 191.84 547.297 191.84 404.884C191.84 262.471 307.289 147.022 449.702 147.022C592.115 147.022 707.563 262.471 707.563 404.884Z" stroke="#29C673" stroke-opacity="0.8" stroke-width="2.80503"/>
</g>
<g filter="url(#filter2_dd_202_2946)">
<ellipse cx="449.222" cy="403.221" rx="162.084" ry="162.084" fill="#EDF2F5"/>
<path d="M610.955 403.221C610.955 492.544 538.544 564.954 449.222 564.954C359.899 564.954 287.488 492.544 287.488 403.221C287.488 313.898 359.899 241.487 449.222 241.487C538.544 241.487 610.955 313.898 610.955 403.221Z" stroke="white" stroke-width="0.701258"/>
</g>
<g clip-path="url(#clip0_202_2946)">
<path d="M418.481 409.027C398.322 390.86 393.14 363.542 405.883 342.602C419.481 320.254 449.189 312.483 472.115 325.272C484.775 332.329 494.158 345.424 497.249 360.32L484.464 362.903C482.119 351.611 475.095 341.732 465.678 336.483C448.865 327.101 427.043 332.819 417.074 349.238C405.973 367.479 414.583 388.107 427.284 399.549L418.481 409.027Z" fill="#2AC870"/>
<path d="M491.267 451.118L488.653 438.507C500.112 436.195 510.13 429.274 515.463 419.993C524.984 403.425 519.174 381.92 502.52 372.096C486.155 362.448 466.727 365.759 452.977 380.601L443.38 371.926C461.222 352.699 487.701 348.334 509.267 361.082C531.945 374.482 539.831 403.758 526.853 426.35C519.657 438.806 506.37 448.073 491.267 451.118Z" fill="#2AC870"/>
<path d="M448.677 382.606C456.283 382.606 462.448 376.53 462.448 369.036C462.448 361.541 456.283 355.465 448.677 355.465C441.072 355.465 434.907 361.541 434.907 369.036C434.907 376.53 441.072 382.606 448.677 382.606Z" fill="#2AC870"/>
<path d="M448.161 450.873C455.767 450.873 461.932 444.797 461.932 437.303C461.932 429.808 455.767 423.732 448.161 423.732C440.556 423.732 434.391 429.808 434.391 437.303C434.391 444.797 440.556 450.873 448.161 450.873Z" fill="#2AC870"/>
<path d="M413.286 417.845C420.891 417.845 427.057 411.769 427.057 404.274C427.057 396.78 420.891 390.704 413.286 390.704C405.68 390.704 399.515 396.78 399.515 404.274C399.515 411.769 405.68 417.845 413.286 417.845Z" fill="#2AC870"/>
<path d="M483.484 416.084C491.089 416.084 497.255 410.008 497.255 402.514C497.255 395.019 491.089 388.943 483.484 388.943C475.879 388.943 469.713 395.019 469.713 402.514C469.713 410.008 475.879 416.084 483.484 416.084Z" fill="#2AC870"/>
<path d="M413.713 451.601C404.502 451.576 395.473 449.072 387.6 444.36C364.922 430.953 357.03 401.677 370.007 379.091C377.182 366.629 390.477 357.369 405.572 354.316L408.194 366.914C396.741 369.233 386.717 376.154 381.384 385.428C371.863 401.996 377.672 423.501 394.327 433.325C410.678 442.986 430.119 439.655 443.869 424.834L453.528 433.509C442.469 445.393 428.146 451.594 413.713 451.601Z" fill="#2AC870"/>
<path d="M448.899 487.458C443.091 487.432 437.341 486.317 431.955 484.174C416.977 478.327 403.841 464.682 397.68 448.575L409.892 444.041C414.797 456.863 425.07 467.66 436.798 472.222C440.958 473.915 445.438 474.71 449.935 474.552C454.433 474.393 458.844 473.286 462.87 471.304C473.178 466.334 480.974 456.068 483.223 444.517C484.354 438.683 483.457 431.388 480.698 423.977C478.726 418.395 475.275 413.435 470.701 409.611C456.62 398.305 428.023 400.555 416.066 413.901C415.965 414.015 415.862 414.137 415.756 414.269L405.662 406.11C405.863 405.872 406.063 405.634 406.27 405.43C423.131 386.604 459.124 383.755 478.945 399.671C485.335 404.95 490.17 411.823 492.944 419.572C496.517 429.144 497.614 438.873 496.035 446.964C492.985 462.642 482.733 476.07 468.61 482.882C462.485 485.882 455.74 487.447 448.899 487.458Z" fill="#2AC870"/>
</g>
<g filter="url(#filter3_dd_202_2946)">
<ellipse cx="453.502" cy="70.3071" rx="66.307" ry="66.3071" fill="#EDF2F5"/>
<path d="M519.666 70.3071C519.666 106.848 490.044 136.471 453.502 136.471C416.961 136.471 387.339 106.848 387.339 70.3071C387.339 33.7659 416.961 4.14344 453.502 4.14344C490.044 4.14344 519.666 33.7659 519.666 70.3071Z" stroke="white" stroke-width="0.286878"/>
</g>
<g clip-path="url(#clip1_202_2946)">
<path d="M467.707 60.5062C472.087 63.6357 477.453 65.4771 483.248 65.4771V54.3308C482.151 54.3311 481.057 54.2166 479.984 53.9894V62.7631C474.189 62.7631 468.824 60.922 464.443 57.7927V80.5392C464.443 91.9184 455.214 101.142 443.83 101.142C439.582 101.142 435.634 99.8587 432.354 97.6573C436.097 101.483 441.317 103.856 447.092 103.856C458.477 103.856 467.707 94.6321 467.707 83.2525V60.5062H467.707ZM471.733 49.261C469.495 46.8167 468.025 43.6578 467.707 40.1655V38.7319H464.614C465.392 43.1705 468.048 46.9625 471.733 49.261ZM439.554 88.9256C438.304 87.2867 437.628 85.2815 437.631 83.2199C437.631 78.0157 441.852 73.7959 447.06 73.7959C448.031 73.7954 448.996 73.9443 449.921 74.2375V62.8419C448.84 62.6939 447.749 62.6309 446.658 62.6541V71.5237C445.733 71.2304 444.767 71.0815 443.796 71.0824C438.588 71.0824 434.367 75.3017 434.367 80.5066C434.367 84.187 436.477 87.3733 439.554 88.9256Z" fill="#FF004F"/>
<path d="M464.443 57.7925C468.825 60.9218 474.19 62.7629 479.985 62.7629V53.9892C476.75 53.3004 473.886 51.611 471.733 49.261C468.048 46.9623 465.393 43.1703 464.614 38.7319H456.49V83.2521C456.471 88.4422 452.257 92.6447 447.06 92.6447C443.998 92.6447 441.277 91.1858 439.554 88.9253C436.478 87.3733 434.367 84.1868 434.367 80.5069C434.367 75.3024 438.589 71.0826 443.797 71.0826C444.794 71.0826 445.756 71.2379 446.658 71.524V62.6543C435.474 62.8853 426.479 72.019 426.479 83.2523C426.479 88.8599 428.719 93.9434 432.355 97.6578C435.634 99.8587 439.582 101.143 443.83 101.143C455.214 101.143 464.444 91.9181 464.444 80.5392V57.7927L464.443 57.7925Z" fill="black"/>
<path d="M479.985 53.9889V51.6171C477.068 51.6215 474.208 50.805 471.733 49.261C473.924 51.6582 476.809 53.3113 479.985 53.9894V53.9889ZM464.614 38.7317C464.54 38.3076 464.483 37.8807 464.443 37.452V36.0184H453.226V80.539C453.208 85.7287 448.994 89.9312 443.796 89.9312C442.323 89.9333 440.87 89.589 439.554 88.9258C441.277 91.1858 443.998 92.6444 447.06 92.6444C452.257 92.6444 456.471 88.4425 456.49 83.2523V38.732H464.614V38.7317ZM446.659 62.6541V60.1287C445.721 60.0005 444.776 59.9364 443.83 59.9368C432.445 59.9368 423.216 69.1611 423.216 80.539C423.216 87.6726 426.843 93.9593 432.355 97.6573C428.72 93.9432 426.48 88.8594 426.48 83.2521C426.48 72.019 435.474 62.8851 446.659 62.6541Z" fill="#00F2EA"/>
</g>
<g filter="url(#filter4_dd_202_2946)">
<ellipse cx="453.502" cy="739.693" rx="66.307" ry="66.3071" fill="#EDF2F5"/>
<path d="M519.666 739.693C519.666 776.234 490.044 805.856 453.502 805.856C416.961 805.856 387.339 776.234 387.339 739.693C387.339 703.152 416.961 673.529 453.502 673.529C490.044 673.529 519.666 703.152 519.666 739.693Z" stroke="white" stroke-width="0.286878"/>
</g>
<g clip-path="url(#clip2_202_2946)">
<path d="M469.18 709.406H437.286C429.515 709.406 423.216 715.706 423.216 723.477V755.37C423.216 763.141 429.515 769.441 437.286 769.441H469.18C476.951 769.441 483.25 763.141 483.25 755.37V723.477C483.25 715.706 476.951 709.406 469.18 709.406Z" fill="url(#paint0_radial_202_2946)"/>
<path d="M469.18 709.406H437.286C429.515 709.406 423.216 715.706 423.216 723.477V755.37C423.216 763.141 429.515 769.441 437.286 769.441H469.18C476.951 769.441 483.25 763.141 483.25 755.37V723.477C483.25 715.706 476.951 709.406 469.18 709.406Z" fill="url(#paint1_radial_202_2946)"/>
<path d="M453.235 715.973C446.867 715.973 446.067 716.001 443.566 716.114C441.069 716.229 439.365 716.624 437.874 717.204C436.331 717.803 435.023 718.604 433.72 719.908C432.415 721.212 431.614 722.52 431.013 724.062C430.431 725.553 430.036 727.258 429.923 729.754C429.812 732.255 429.782 733.055 429.782 739.424C429.782 745.793 429.81 746.59 429.924 749.091C430.039 751.588 430.434 753.292 431.013 754.783C431.613 756.326 432.414 757.634 433.718 758.937C435.021 760.242 436.33 761.045 437.871 761.644C439.363 762.224 441.068 762.619 443.564 762.733C446.065 762.847 446.864 762.875 453.233 762.875C459.602 762.875 460.399 762.847 462.9 762.733C465.397 762.619 467.103 762.224 468.595 761.644C470.137 761.045 471.443 760.242 472.746 758.937C474.051 757.634 474.852 756.326 475.453 754.784C476.029 753.292 476.425 751.587 476.543 749.092C476.655 746.59 476.684 745.793 476.684 739.424C476.684 733.055 476.655 732.256 476.543 729.754C476.425 727.258 476.029 725.554 475.453 724.063C474.852 722.52 474.051 721.212 472.746 719.908C471.442 718.604 470.137 717.802 468.594 717.204C467.099 716.624 465.394 716.229 462.897 716.114C460.395 716.001 459.599 715.973 453.228 715.973H453.235ZM451.132 720.199C451.756 720.198 452.453 720.199 453.235 720.199C459.497 720.199 460.239 720.221 462.712 720.334C464.998 720.438 466.239 720.82 467.066 721.141C468.16 721.566 468.94 722.074 469.761 722.895C470.582 723.716 471.09 724.498 471.516 725.592C471.837 726.418 472.219 727.659 472.323 729.945C472.436 732.417 472.46 733.16 472.46 739.419C472.46 745.677 472.436 746.42 472.323 748.892C472.219 751.178 471.837 752.419 471.516 753.245C471.091 754.339 470.582 755.119 469.761 755.939C468.94 756.76 468.161 757.268 467.066 757.693C466.24 758.015 464.998 758.396 462.712 758.501C460.239 758.613 459.497 758.638 453.235 758.638C446.973 758.638 446.231 758.613 443.759 758.501C441.473 758.396 440.232 758.014 439.404 757.692C438.31 757.267 437.528 756.759 436.708 755.939C435.887 755.118 435.379 754.338 434.953 753.243C434.632 752.417 434.249 751.176 434.145 748.89C434.033 746.418 434.01 745.675 434.01 739.413C434.01 733.15 434.033 732.412 434.145 729.939C434.25 727.653 434.632 726.412 434.953 725.585C435.378 724.491 435.887 723.709 436.708 722.888C437.529 722.068 438.31 721.559 439.405 721.134C440.231 720.811 441.473 720.43 443.759 720.325C445.923 720.227 446.761 720.198 451.132 720.193V720.199ZM465.753 724.093C464.2 724.093 462.939 725.352 462.939 726.906C462.939 728.459 464.2 729.72 465.753 729.72C467.307 729.72 468.568 728.459 468.568 726.906C468.568 725.352 467.307 724.092 465.753 724.092V724.093ZM453.235 727.381C446.585 727.381 441.192 732.773 441.192 739.424C441.192 746.075 446.585 751.465 453.235 751.465C459.886 751.465 465.277 746.075 465.277 739.424C465.277 732.773 459.886 727.381 453.235 727.381H453.235ZM453.235 731.607C457.552 731.607 461.052 735.106 461.052 739.424C461.052 743.741 457.552 747.241 453.235 747.241C448.918 747.241 445.418 743.741 445.418 739.424C445.418 735.106 448.918 731.607 453.235 731.607Z" fill="white"/>
</g>
<g filter="url(#filter5_dd_202_2946)">
<ellipse cx="114.307" cy="398.496" rx="66.307" ry="66.3071" fill="#EDF2F5"/>
<path d="M180.114 398.496C180.114 434.841 150.651 464.303 114.307 464.303C77.9628 464.303 48.5 434.841 48.5 398.496C48.5 362.152 77.9628 332.689 114.307 332.689C150.651 332.689 180.114 362.152 180.114 398.496Z" stroke="white"/>
</g>
<path d="M138.731 371.476H89.3483C87.6569 371.476 86.2856 372.847 86.2856 374.539V423.922C86.2856 425.613 87.6569 426.985 89.3483 426.985H138.731C140.423 426.985 141.794 425.613 141.794 423.922V374.539C141.794 372.847 140.423 371.476 138.731 371.476Z" fill="#3D5A98"/>
<path d="M124.582 426.98V405.485H131.795L132.874 397.108H124.582V391.761C124.582 389.336 125.257 387.681 128.733 387.681H133.169V380.176C131.021 379.952 128.862 379.846 126.702 379.857C120.314 379.857 115.914 383.75 115.914 390.931V397.108H108.701V405.485H115.914V426.98H124.582Z" fill="white"/>
<g filter="url(#filter6_dd_202_2946)">
<ellipse cx="784.693" cy="401.498" rx="66.307" ry="66.3071" fill="#EDF2F5"/>
<path d="M850.856 401.498C850.856 438.039 821.234 467.662 784.693 467.662C748.152 467.662 718.529 438.039 718.529 401.498C718.529 364.957 748.152 335.334 784.693 335.334C821.234 335.334 850.856 364.957 850.856 401.498Z" stroke="white" stroke-width="0.286878"/>
</g>
<g clip-path="url(#clip3_202_2946)">
<path d="M801.683 374.026H810.891L790.78 397.072L814.441 428.432H795.916L781.407 409.409L764.803 428.432H755.592L777.103 403.78L754.406 374.026H773.403L786.517 391.41L801.683 374.026ZM798.457 422.909H803.56L770.627 379.26H765.156L798.457 422.909Z" fill="black"/>
</g>
<defs>
<filter id="filter0_ddd_202_2946" x="0.877853" y="0.907875" width="905.365" height="905.366" filterUnits="userSpaceOnUse" color-interpolation-filters="sRGB">
<feFlood flood-opacity="0" result="BackgroundImageFix"/>
<feColorMatrix in="SourceAlpha" type="matrix" values="0 0 0 0 0 0 0 0 0 0 0 0 0 0 0 0 0 0 127 0" result="hardAlpha"/>
<feOffset dy="3.21575"/>
<feGaussianBlur stdDeviation="3.78324"/>
<feColorMatrix type="matrix" values="0 0 0 0 0 0 0 0 0 0 0 0 0 0 0 0 0 0 0.0363503 0"/>
<feBlend mode="normal" in2="BackgroundImageFix" result="effect1_dropShadow_202_2946"/>
<feColorMatrix in="SourceAlpha" type="matrix" values="0 0 0 0 0 0 0 0 0 0 0 0 0 0 0 0 0 0 127 0" result="hardAlpha"/>
<feOffset dy="10.801"/>
<feGaussianBlur stdDeviation="12.7071"/>
<feColorMatrix type="matrix" values="0 0 0 0 0 0 0 0 0 0 0 0 0 0 0 0 0 0 0.0536497 0"/>
<feBlend mode="normal" in2="effect1_dropShadow_202_2946" result="effect2_dropShadow_202_2946"/>
<feColorMatrix in="SourceAlpha" type="matrix" values="0 0 0 0 0 0 0 0 0 0 0 0 0 0 0 0 0 0 127 0" result="hardAlpha"/>
<feOffset dy="48.3564"/>
<feGaussianBlur stdDeviation="56.8899"/>
<feColorMatrix type="matrix" values="0 0 0 0 0 0 0 0 0 0 0 0 0 0 0 0 0 0 0.09 0"/>
<feBlend mode="normal" in2="effect2_dropShadow_202_2946" result="effect3_dropShadow_202_2946"/>
<feBlend mode="normal" in="SourceGraphic" in2="effect3_dropShadow_202_2946" result="shape"/>
</filter>
<filter id="filter1_ddd_202_2946" x="114.329" y="101.857" width="670.745" height="670.746" filterUnits="userSpaceOnUse" color-interpolation-filters="sRGB">
<feFlood flood-opacity="0" result="BackgroundImageFix"/>
<feColorMatrix in="SourceAlpha" type="matrix" values="0 0 0 0 0 0 0 0 0 0 0 0 0 0 0 0 0 0 127 0" result="hardAlpha"/>
<feOffset dy="2.15105"/>
<feGaussianBlur stdDeviation="2.53065"/>
<feColorMatrix type="matrix" values="0 0 0 0 0 0 0 0 0 0 0 0 0 0 0 0 0 0 0.0363503 0"/>
<feBlend mode="normal" in2="BackgroundImageFix" result="effect1_dropShadow_202_2946"/>
<feColorMatrix in="SourceAlpha" type="matrix" values="0 0 0 0 0 0 0 0 0 0 0 0 0 0 0 0 0 0 127 0" result="hardAlpha"/>
<feOffset dy="7.22493"/>
<feGaussianBlur stdDeviation="8.49992"/>
<feColorMatrix type="matrix" values="0 0 0 0 0 0 0 0 0 0 0 0 0 0 0 0 0 0 0.0536497 0"/>
<feBlend mode="normal" in2="effect1_dropShadow_202_2946" result="effect2_dropShadow_202_2946"/>
<feColorMatrix in="SourceAlpha" type="matrix" values="0 0 0 0 0 0 0 0 0 0 0 0 0 0 0 0 0 0 127 0" result="hardAlpha"/>
<feOffset dy="32.3461"/>
<feGaussianBlur stdDeviation="38.0543"/>
<feColorMatrix type="matrix" values="0 0 0 0 0 0 0 0 0 0 0 0 0 0 0 0 0 0 0.09 0"/>
<feBlend mode="normal" in2="effect2_dropShadow_202_2946" result="effect3_dropShadow_202_2946"/>
<feBlend mode="normal" in="SourceGraphic" in2="effect3_dropShadow_202_2946" result="shape"/>
</filter>
<filter id="filter2_dd_202_2946" x="274.607" y="233.932" width="349.23" height="349.23" filterUnits="userSpaceOnUse" color-interpolation-filters="sRGB">
<feFlood flood-opacity="0" result="BackgroundImageFix"/>
<feColorMatrix in="SourceAlpha" type="matrix" values="0 0 0 0 0 0 0 0 0 0 0 0 0 0 0 0 0 0 127 0" result="hardAlpha"/>
<feOffset dy="1.58557"/>
<feGaussianBlur stdDeviation="1.86537"/>
<feColorMatrix type="matrix" values="0 0 0 0 0 0 0 0 0 0 0 0 0 0 0 0 0 0 0.0363503 0"/>
<feBlend mode="normal" in2="BackgroundImageFix" result="effect1_dropShadow_202_2946"/>
<feColorMatrix in="SourceAlpha" type="matrix" values="0 0 0 0 0 0 0 0 0 0 0 0 0 0 0 0 0 0 127 0" result="hardAlpha"/>
<feOffset dy="5.32559"/>
<feGaussianBlur stdDeviation="6.26541"/>
<feColorMatrix type="matrix" values="0 0 0 0 0 0 0 0 0 0 0 0 0 0 0 0 0 0 0.0536497 0"/>
<feBlend mode="normal" in2="effect1_dropShadow_202_2946" result="effect2_dropShadow_202_2946"/>
<feBlend mode="normal" in="SourceGraphic" in2="effect2_dropShadow_202_2946" result="shape"/>
</filter>
<filter id="filter3_dd_202_2946" x="382.069" y="1.05241" width="142.867" height="142.867" filterUnits="userSpaceOnUse" color-interpolation-filters="sRGB">
<feFlood flood-opacity="0" result="BackgroundImageFix"/>
<feColorMatrix in="SourceAlpha" type="matrix" values="0 0 0 0 0 0 0 0 0 0 0 0 0 0 0 0 0 0 127 0" result="hardAlpha"/>
<feOffset dy="0.648642"/>
<feGaussianBlur stdDeviation="0.763108"/>
<feColorMatrix type="matrix" values="0 0 0 0 0 0 0 0 0 0 0 0 0 0 0 0 0 0 0.0363503 0"/>
<feBlend mode="normal" in2="BackgroundImageFix" result="effect1_dropShadow_202_2946"/>
<feColorMatrix in="SourceAlpha" type="matrix" values="0 0 0 0 0 0 0 0 0 0 0 0 0 0 0 0 0 0 127 0" result="hardAlpha"/>
<feOffset dy="2.17865"/>
<feGaussianBlur stdDeviation="2.56312"/>
<feColorMatrix type="matrix" values="0 0 0 0 0 0 0 0 0 0 0 0 0 0 0 0 0 0 0.0536497 0"/>
<feBlend mode="normal" in2="effect1_dropShadow_202_2946" result="effect2_dropShadow_202_2946"/>
<feBlend mode="normal" in="SourceGraphic" in2="effect2_dropShadow_202_2946" result="shape"/>
</filter>
<filter id="filter4_dd_202_2946" x="382.069" y="670.438" width="142.867" height="142.867" filterUnits="userSpaceOnUse" color-interpolation-filters="sRGB">
<feFlood flood-opacity="0" result="BackgroundImageFix"/>
<feColorMatrix in="SourceAlpha" type="matrix" values="0 0 0 0 0 0 0 0 0 0 0 0 0 0 0 0 0 0 127 0" result="hardAlpha"/>
<feOffset dy="0.648642"/>
<feGaussianBlur stdDeviation="0.763108"/>
<feColorMatrix type="matrix" values="0 0 0 0 0 0 0 0 0 0 0 0 0 0 0 0 0 0 0.0363503 0"/>
<feBlend mode="normal" in2="BackgroundImageFix" result="effect1_dropShadow_202_2946"/>
<feColorMatrix in="SourceAlpha" type="matrix" values="0 0 0 0 0 0 0 0 0 0 0 0 0 0 0 0 0 0 127 0" result="hardAlpha"/>
<feOffset dy="2.17865"/>
<feGaussianBlur stdDeviation="2.56312"/>
<feColorMatrix type="matrix" values="0 0 0 0 0 0 0 0 0 0 0 0 0 0 0 0 0 0 0.0536497 0"/>
<feBlend mode="normal" in2="effect1_dropShadow_202_2946" result="effect2_dropShadow_202_2946"/>
<feBlend mode="normal" in="SourceGraphic" in2="effect2_dropShadow_202_2946" result="shape"/>
</filter>
<filter id="filter5_dd_202_2946" x="30.131" y="321.915" width="168.352" height="168.352" filterUnits="userSpaceOnUse" color-interpolation-filters="sRGB">
<feFlood flood-opacity="0" result="BackgroundImageFix"/>
<feColorMatrix in="SourceAlpha" type="matrix" values="0 0 0 0 0 0 0 0 0 0 0 0 0 0 0 0 0 0 127 0" result="hardAlpha"/>
<feOffset dy="2.26103"/>
<feGaussianBlur stdDeviation="2.66004"/>
<feColorMatrix type="matrix" values="0 0 0 0 0 0 0 0 0 0 0 0 0 0 0 0 0 0 0.0363503 0"/>
<feBlend mode="normal" in2="BackgroundImageFix" result="effect1_dropShadow_202_2946"/>
<feColorMatrix in="SourceAlpha" type="matrix" values="0 0 0 0 0 0 0 0 0 0 0 0 0 0 0 0 0 0 127 0" result="hardAlpha"/>
<feOffset dy="7.59435"/>
<feGaussianBlur stdDeviation="8.93452"/>
<feColorMatrix type="matrix" values="0 0 0 0 0 0 0 0 0 0 0 0 0 0 0 0 0 0 0.0536497 0"/>
<feBlend mode="normal" in2="effect1_dropShadow_202_2946" result="effect2_dropShadow_202_2946"/>
<feBlend mode="normal" in="SourceGraphic" in2="effect2_dropShadow_202_2946" result="shape"/>
</filter>
<filter id="filter6_dd_202_2946" x="713.26" y="332.243" width="142.867" height="142.867" filterUnits="userSpaceOnUse" color-interpolation-filters="sRGB">
<feFlood flood-opacity="0" result="BackgroundImageFix"/>
<feColorMatrix in="SourceAlpha" type="matrix" values="0 0 0 0 0 0 0 0 0 0 0 0 0 0 0 0 0 0 127 0" result="hardAlpha"/>
<feOffset dy="0.648642"/>
<feGaussianBlur stdDeviation="0.763108"/>
<feColorMatrix type="matrix" values="0 0 0 0 0 0 0 0 0 0 0 0 0 0 0 0 0 0 0.0363503 0"/>
<feBlend mode="normal" in2="BackgroundImageFix" result="effect1_dropShadow_202_2946"/>
<feColorMatrix in="SourceAlpha" type="matrix" values="0 0 0 0 0 0 0 0 0 0 0 0 0 0 0 0 0 0 127 0" result="hardAlpha"/>
<feOffset dy="2.17865"/>
<feGaussianBlur stdDeviation="2.56312"/>
<feColorMatrix type="matrix" values="0 0 0 0 0 0 0 0 0 0 0 0 0 0 0 0 0 0 0.0536497 0"/>
<feBlend mode="normal" in2="effect1_dropShadow_202_2946" result="effect2_dropShadow_202_2946"/>
<feBlend mode="normal" in="SourceGraphic" in2="effect2_dropShadow_202_2946" result="shape"/>
</filter>
<radialGradient id="paint0_radial_202_2946" cx="0" cy="0" r="1" gradientUnits="userSpaceOnUse" gradientTransform="translate(439.162 774.065) rotate(-90) scale(59.4987 55.3385)">
<stop stop-color="#FFDD55"/>
<stop offset="0.1" stop-color="#FFDD55"/>
<stop offset="0.5" stop-color="#FF543E"/>
<stop offset="1" stop-color="#C837AB"/>
</radialGradient>
<radialGradient id="paint1_radial_202_2946" cx="0" cy="0" r="1" gradientUnits="userSpaceOnUse" gradientTransform="translate(413.16 713.731) rotate(78.681) scale(26.5963 109.631)">
<stop stop-color="#3771C8"/>
<stop offset="0.128" stop-color="#3771C8"/>
<stop offset="1" stop-color="#6600FF" stop-opacity="0"/>
</radialGradient>
<clipPath id="clip0_202_2946">
<rect x="361.515" y="313.408" width="174.988" height="179.362" fill="white"/>
</clipPath>
<clipPath id="clip1_202_2946">
<rect width="60.0346" height="68.008" fill="white" transform="translate(423.216 36.0184)"/>
</clipPath>
<clipPath id="clip2_202_2946">
<rect width="60.0346" height="60.0346" fill="white" transform="translate(423.216 709.406)"/>
</clipPath>
<clipPath id="clip3_202_2946">
<rect width="60.0346" height="60.0346" fill="white" transform="translate(754.406 371.212)"/>
</clipPath>
</defs>
</svg>
